<?xml version="1.0" encoding="utf-8"?>
<!-- Generator: Adobe Illustrator 18.1.1, SVG Export Plug-In . SVG Version: 6.00 Build 0)  -->
<svg version="1.1" id="icons" xmlns="http://www.w3.org/2000/svg" xmlns:xlink="http://www.w3.org/1999/xlink" x="0px" y="0px"
	 viewBox="0 213.9 595.3 436.9" enable-background="new 0 213.9 595.3 436.9" xml:space="preserve">
<ellipse fill="#D8D8D8" cx="304.8" cy="575.7" rx="139.9" ry="11.9"/>
<g>
	<path fill="#E1E1E1" d="M367.3,387.6c0-12.5,32.1-16.1,48.8-16.1c18.5,0,48.8,3,48.8,16.1c0,12.5-31,16.1-48.8,16.1
		S367.3,400.1,367.3,387.6z M373.8,387.6c0.6,3,16.1,9.5,43.5,9.5c26.8,0,42.9-6.5,43.5-9.5c-0.6-3-16.1-9.5-43.5-9.5
		C389.9,378.1,374.4,384.6,373.8,387.6z"/>
	<path fill="#E1E1E1" d="M472.1,513.2v-7.1c-26.8,0-42.9-6.5-43.5-9.5l0,0c0,0,0.6-1.8,6-3.6l-2.4-6.5c-6.5,2.4-10.1,6.5-10.1,10.7
		C422.1,510.2,453.6,513.2,472.1,513.2z"/>
	<path fill="#E1E1E1" d="M469.7,530.5c18.5,0,48.8-3,48.8-16.1v-11.3h-6.5v11.3c-0.6,3-16.1,9.5-43.5,9.5c-28.6,0-42.9-7.1-43.5-9.5
		v-17.9h-6.5v17.9C420.9,526.9,453,530.5,469.7,530.5z"/>
	<path fill="#E1E1E1" d="M479.2,496.5c18.5,0,48.8-3,48.8-16.1h-6c-0.6,3-16.1,9.5-43.5,9.5c-26.8,0-42.9-6.5-43.5-9.5
		c0,0,0.6-1.2,2.4-2.4l-3-6c-3.6,2.4-5.4,4.8-5.4,7.7C430.4,493,461.3,496.5,479.2,496.5z"/>
	<path fill="#E1E1E1" d="M476.2,513.2c18.5,0,48.8-3,48.8-16.1v-14.3c0-2.4-1.8-3-3-3s-3,1.8-3,3v14.3c-0.6,3-16.1,9.5-43.5,9.5
		c-28.6,0-42.9-7.1-43.5-9.5v-14.3c0-2.4-1.8-3-3-3c-1.2,0-3,1.8-3,3v14.3C426.2,510.2,459,513.2,476.2,513.2z"/>
	<path fill="#E1E1E1" d="M447.7,455.5c0-12.5,32.1-16.1,48.8-16.1c18.5,0,48.8,3,48.8,16.1c0,12.5-31,16.1-48.8,16.1
		C478.6,470.9,447.7,468,447.7,455.5z M453.6,455.5c0.6,3,16.1,9.5,43.5,9.5c26.8,0,42.9-6.5,43.5-9.5c-0.6-3-16.1-9.5-43.5-9.5
		C470.3,445.9,454.2,451.9,453.6,455.5z"/>
	<path fill="#E1E1E1" d="M494.7,488.2c18.5,0,48.8-3,48.8-16.1v-16.1h-6.5v16.1c-0.6,3-16.1,9.5-43.5,9.5c-28.6,0-42.9-7.1-43.5-9.5
		v-16.1h-6.5v16.1C445.3,484.6,477.4,488.2,494.7,488.2z"/>
	<path fill="#E1E1E1" d="M480.4,530.5c20.8,0,44.6-3.6,51.2-11.3c1.8-2.4,2.4-3.6,2.4-4.8c0-7.7-11.9-10.1-15.5-11.3l-1.2,7.1
		c8.3,1.8,10.1,3.6,10.1,4.2c-1.8,3-20.8,9.5-48.8,8.9v7.1C479.8,530.5,480.4,530.5,480.4,530.5z"/>
	<path fill="#E1E1E1" d="M482.2,547.1c18.5,0,48.8-3,48.8-16.1v-14.3c0-2.4-1.8-3-3-3c-1.8,0-3,1.8-3,3v14.3
		c-0.6,3-16.1,9.5-43.5,9.5c-28.6,0-42.9-7.1-43.5-9.5v-7.1c0-2.4-1.8-3-3-3c-1.8,0-3,1.8-3,3v7.7
		C432.8,544.2,464.9,547.1,482.2,547.1z"/>
	<path fill="#E1E1E1" d="M416.7,428.7c18.5,0,48.8-3,48.8-16.1c0-2.4-1.8-3-3-3c-1.8,0-3,1.8-3,3c-0.6,3-16.1,9.5-43.5,9.5
		c-26.8,0-42.9-6.5-43.5-9.5c0-2.4-1.8-3-3-3c-1.8,0-3,1.8-3,3C367.3,425.7,398.2,428.7,416.7,428.7z"/>
	<path fill="#E1E1E1" d="M416.7,454.3c18.5,0,48.8-3,48.8-16.1c0-2.4-1.8-3-3-3c-1.8,0-3,1.8-3,3c-0.6,3-16.1,9.5-43.5,9.5
		c-26.8,0-42.9-6.5-43.5-9.5c0-2.4-1.8-3-3-3c-1.8,0-3,1.8-3,3C367.3,451.3,398.2,454.3,416.7,454.3z"/>
	<path fill="#E1E1E1" d="M416.7,479.3c8.3,0,25-1.2,32.1-2.4c1.8-0.6,2.4-2.4,2.4-3.6c0-1.8-1.8-3-3.6-2.4c-7.1,1.2-23.2,2.4-31,2.4
		c-26.8,0-42.9-6.5-43.5-9.5c0-2.4-1.8-3-3-3c-1.2,0-3,1.8-3,3C367.3,476.3,398.2,479.3,416.7,479.3z"/>
	<path fill="#E1E1E1" d="M416.7,504.9c2.4,0,5.4,0,7.7,0c1.8,0,3-1.8,3-3.6c0-2.4-1.8-3-3-3c-2.4,0-4.8,0-7.1,0
		c-26.8,0-42.9-6.5-43.5-9.5c0-2.4-1.8-3-3-3c-1.8,0-3,1.8-3,3C367.3,501.9,398.2,504.9,416.7,504.9z"/>
	<rect x="457.8" y="388.2" fill="#E1E1E1" width="6.5" height="60.7"/>
	<path fill="#E1E1E1" d="M416.1,528.7c2.4,0,11.9-1.2,16.1-5.4c1.2-1.2,1.8-3,0.6-4.8c-1.2-1.8-3-1.8-4.2-0.6
		c-2.4,2.4-10.1,3.6-11.9,3.6c-27.4,0-44.1-6.5-44.6-9.5V388.2c0-2.4-1.8-3-3-3c-1.8,0-3,1.8-3,3V512
		C364.9,525.7,398.2,528.7,416.1,528.7z"/>
</g>
<g>
	<g>
		<path fill="#E1E1E1" d="M85.1,556.1c-14.9,0-29.8-0.6-44.6-2.4c-1.8,0-3-1.8-3-2.4V465c0-1.2,0.6-1.8,1.2-2.4c0,0,0.6-0.6,1.8,0
			c14.9,1.8,29.8,2.4,44.1,2.4c20.8,0,38.7-1.8,56.6-2.4c16.7-1.8,35.1-2.4,53.6-2.4c14.3,0,27.4,0.6,41.7,2.4c1.8,0,3,1.8,3,2.4
			v85.7c0,1.2-0.6,1.8-1.2,2.4c-0.6,0.6-1.8,1.2-2.4,1.2c-13.7-1.8-26.8-2.4-40.5-2.4c-18.5,0-35.1,1.2-53,2.4
			C123.8,554.3,105.4,556.1,85.1,556.1z M44.1,548.3c13.7,1.2,27.4,2.4,41.1,2.4c20.8,0,38.7-1.8,56.6-2.4
			c16.7-1.8,35.1-2.4,53.6-2.4c12.5,0,25.6,0.6,38.1,2.4v-81.6c-12.5-1.2-25-2.4-38.1-2.4c-18.5,0-35.1,1.2-53,2.4
			c-17.9,1.8-36.3,2.4-57.1,2.4c-13.7,0-27.4-0.6-41.1-2.4C44.1,468,44.1,548.3,44.1,548.3z"/>
		<path fill="#E1E1E1" d="M82.7,541.8c-8.9,0-17.3-0.6-25.6-1.2c-2.4,0-3-1.8-3-3c0-1.8,1.8-2.4,3.6-2.4c8.3,0.6,16.7,1.2,25.6,1.2
			c2.4,0,3,1.2,3,2.4C86.3,540,84.5,541.8,82.7,541.8z"/>
		<path fill="#E1E1E1" d="M216.7,479.9L216.7,479.9c-8.9-0.6-17.3-1.2-25.6-1.2c-2.4,0-3-1.2-3-2.4c0-1.2,1.8-2.4,3-2.4
			c8.9,0,17.3,0.6,25.6,1.2c2.4,0,3,1.8,3,3C220.8,479.3,219.1,479.9,216.7,479.9z"/>
	</g>
	<g>
		<path fill="#E1E1E1" d="M132.7,522.7c-7.7,0-13.1-3.6-13.1-9.5c0-1.8,1.8-2.4,3-2.4c2.4,0,3,1.2,3,2.4c0,3.6,4.2,3.6,6.5,3.6
			s6.5-0.6,6.5-3.6c0-2.4-0.6-2.4-6.5-4.8l-3-1.2c-6-2.4-10.1-4.2-10.1-10.1s5.4-9.5,13.1-9.5c7.7,0,12.5,3.6,12.5,9.5
			c0,1.8-1.8,2.4-3,2.4c-1.2,0-3-1.2-3-2.4c0-3.6-4.2-4.2-6.5-4.2s-6.5,0.6-6.5,4.2c0,2.4,0.6,2.4,6.5,4.8l3,1.2
			c6,2.4,10.1,4.2,10.1,10.1C146.4,518.6,141.1,522.7,132.7,522.7z"/>
		<path fill="#E1E1E1" d="M135.1,491.2c-2.4,0-3-1.2-3-2.4v-6c0-1.8,1.8-2.4,3-2.4c2.4,0,3,1.2,3,2.4v6
			C138.1,490,136.9,491.2,135.1,491.2z"/>
		<path fill="#E1E1E1" d="M135.1,531.1c-2.4,0-3-1.2-3-2.4v-6c0-1.8,1.8-2.4,3-2.4c2.4,0,3,1.2,3,2.4v6
			C138.1,529.9,136.9,531.1,135.1,531.1z"/>
	</g>
</g>
<g>
	<g>
		<path fill="#E1E1E1" d="M139.3,464.4c-14.9,0-29.8-0.6-44.6-2.4c-1.8,0-3-1.8-3-2.4v-86.3c0-1.2,0.6-1.8,1.2-2.4
			c0.6-0.6,1.8-1.2,2.4-0.6c14.9,1.8,29.8,2.4,44.1,2.4c20.8,0,38.7-1.8,56.6-2.4c16.7-1.8,35.1-2.4,53.6-2.4
			c14.3,0,27.4,0.6,41.7,2.4c1.8,0,3,1.8,3,2.4v85.7c0,1.2-0.6,1.8-1.2,2.4c-0.6,0.6-1.8,0.6-2.4,0.6c-13.7-1.8-26.8-2.4-40.5-2.4
			c-18.5,0-35.1,1.2-53,2.4C178.6,463.2,160.1,464.4,139.3,464.4z M98.2,456.7c13.7,1.2,27.4,2.4,41.1,2.4c20.8,0,38.7-1.8,56.6-2.4
			c16.7-1.8,35.1-2.4,53.6-2.4c12.5,0,25.6,0.6,38.1,2.4v-81.6c-13.1-1.2-25.6-1.8-38.7-1.8c-18.5,0-35.1,1.2-53,2.4
			c-17.9,1.8-36.3,2.4-57.1,2.4c-13.7,0-27.4-0.6-41.1-2.4C98.2,376.9,98.2,456.7,98.2,456.7z"/>
		<path fill="#E1E1E1" d="M136.9,450.1c-8.9,0-17.3-0.6-25.6-1.2c-2.4,0-3-1.8-3-3c0-1.2,1.8-2.4,3.6-2.4c8.3,0.6,16.7,1.2,25.6,1.2
			c2.4,0,3,1.2,3,2.4C140.5,448.9,138.7,450.1,136.9,450.1z"/>
		<path fill="#E1E1E1" d="M271.4,388.2L271.4,388.2c-8.9-0.6-17.3-1.2-25.6-1.2c-2.4,0-3-1.2-3-2.4s1.8-2.4,3-2.4
			c8.9,0,17.3,0.6,25.6,1.2c2.4,0,3,1.8,3,3C274.4,387,272.6,388.2,271.4,388.2z"/>
	</g>
	<g>
		<path fill="#E1E1E1" d="M187.5,431.1c-7.7,0-13.1-3.6-13.1-9.5c0-1.8,1.8-2.4,3-2.4c2.4,0,3,1.2,3,2.4c0,3.6,4.2,3.6,6.5,3.6
			s6.5-0.6,6.5-3.6c0-2.4-0.6-2.4-6.5-4.8l-3-1.2c-6-2.4-10.1-4.2-10.1-10.1c0-6,5.4-9.5,13.1-9.5s12.5,3.6,12.5,9.5
			c0,1.8-1.8,2.4-3,2.4s-3-1.2-3-2.4c0-3.6-4.2-4.2-6.5-4.2s-6.5,0.6-6.5,4.2c0,2.4,0.6,2.4,6.5,4.8l3,1.2c6,2.4,10.1,4.2,10.1,10.1
			C200.6,427.5,195.3,431.1,187.5,431.1z"/>
		<path fill="#E1E1E1" d="M189.3,400.1c-2.4,0-3-1.2-3-2.4v-6c0-1.8,1.8-2.4,3-2.4c1.8,0,3,1.2,3,2.4v6
			C192.9,398.3,191.1,400.1,189.3,400.1z"/>
		<path fill="#E1E1E1" d="M189.3,439.4c-2.4,0-3-1.2-3-2.4v-6c0-1.8,1.8-2.4,3-2.4c1.8,0,3,1.2,3,2.4v6
			C192.9,438.2,191.1,439.4,189.3,439.4z"/>
	</g>
</g>
<g id="Layer_1">
	<path fill="#9B9188" stroke="#48494E" stroke-width="2" stroke-miterlimit="10" d="M350,338.2c5.4,0,9.5,4.2,9.5,9.5
		c0,5.4-4.2,9.5-9.5,9.5h-92.3c-5.4,0-9.5-4.2-9.5-9.5c0-5.4,4.2-9.5,9.5-9.5H350z M355.4,365.6H251.8
		c-45.2,33.3-77.4,104.2-77.4,148.8c0,60.7,58.3,54.2,129.2,54.2s129.2,6.5,129.2-54.2C432.8,469.8,400.6,398.9,355.4,365.6z
		 M251.8,328.7h103c0,0,40.5-35.7,22-51.2c-18.5-16.1-59.5,17.3-73.8,16.1c-14.3,1.2-55.4-31.5-73.8-16.1S251.8,328.7,251.8,328.7z"
		/>
	<g>
		<g>
			<g>
				<path fill="#C0B100" d="M305.4,506.1c-16.1,0-27.4-9.5-27.4-23.8c0-3,2.4-4.8,4.8-4.8c2.4,0,4.8,2.4,4.8,4.8
					c0,13.1,13.7,13.7,17.9,13.7c4.2,0,17.9-1.2,17.9-13.7c0-8.3-3-10.1-16.1-16.1l-7.7-3.6c-13.1-6.5-21.4-10.7-21.4-25
					c0-14.3,10.7-23.8,27.4-23.8c16.1,0,26.8,9.5,26.8,23.8c0,3-2.4,4.8-4.8,4.8s-4.8-2.4-4.8-4.8c0-13.1-13.1-14.3-17.3-14.3
					c-3,0-17.9,0.6-17.9,14.3c0,8.3,3,10.1,16.1,16.1l7.1,3.6c13.1,6.5,21.4,10.7,21.4,25C332.8,496.5,321.5,506.1,305.4,506.1z"/>
				<path fill="#C0B100" d="M305.4,416.8c14.9,0,23.8,8.3,23.8,20.8c0,1.2-0.6,1.8-1.8,1.8c-1.2,0-1.8-0.6-1.8-1.8
					c0-12.5-10.7-17.3-20.2-17.3s-20.8,4.2-20.8,17.3c0,10.1,5.4,12.5,17.9,19l7.1,3.6c13.1,6.5,20.2,10.1,20.2,22.6
					c0,12.5-9.5,20.8-24.4,20.8c-14.9,0-24.4-8.3-24.4-20.8c0-1.2,0.6-1.8,1.8-1.8c1.2,0,1.8,0.6,1.8,1.8
					c0,12.5,10.7,16.7,20.8,16.7c10.1,0,20.8-4.2,20.8-16.7c0-10.1-5.4-12.5-17.9-19l-7.1-3.6c-13.1-6.5-20.2-10.1-20.2-22.6
					C281,425.1,290.5,416.8,305.4,416.8 M305.4,410.8c-17.9,0-30.4,10.7-30.4,26.8c0,16.1,10.1,21.4,23.2,28l7.1,3.6
					c13.1,6.5,14.3,7.7,14.3,13.7c0,9.5-10.1,10.7-14.9,10.7c-4.2,0-14.9-1.2-14.9-10.7c0-4.2-3.6-7.7-7.7-7.7
					c-4.2,0-7.7,3.6-7.7,7.7c0,16.1,11.9,26.8,30.4,26.8c17.9,0,30.4-10.7,30.4-26.8c0-16.1-10.1-21.4-23.2-28l-7.1-3.6
					c-13.1-6.5-14.3-7.7-14.3-13.7c0-10.1,11.3-11.3,14.9-11.3c5.4,0,14.3,1.2,14.3,11.3c0,4.2,3.6,7.7,7.7,7.7s7.7-3.6,7.7-7.7
					C335.1,421.5,323.2,410.8,305.4,410.8L305.4,410.8z"/>
			</g>
			<g>
				<path fill="#C0B100" d="M306.6,423.9c-3,0-4.8-2.4-4.8-4.8v-11.3c0-3,2.4-4.8,4.8-4.8s4.8,2.4,4.8,4.8v11.3
					C311.3,421.5,309,423.9,306.6,423.9z"/>
				<path fill="#C0B100" d="M306.6,405.5c1.2,0,1.8,0.6,1.8,1.8v11.3c0,1.2-0.6,1.8-1.8,1.8s-1.8-0.6-1.8-1.8v-11.3
					C304.2,406.1,305.4,405.5,306.6,405.5 M306.6,399.5c-4.2,0-7.7,3.6-7.7,7.7v11.3c0,4.2,3.6,7.7,7.7,7.7s7.7-3.6,7.7-7.7v-11.3
					C314.3,403.1,310.7,399.5,306.6,399.5L306.6,399.5z"/>
			</g>
			<g>
				<path fill="#C0B100" d="M306.6,519.2c-3,0-4.8-2.4-4.8-4.8v-11.3c0-3,2.4-4.8,4.8-4.8s4.8,2.4,4.8,4.8v11.3
					C311.3,516.8,309,519.2,306.6,519.2z"/>
				<path fill="#C0B100" d="M306.6,500.7c1.2,0,1.8,0.6,1.8,1.8v11.3c0,1.2-0.6,1.8-1.8,1.8s-1.8-0.6-1.8-1.8v-11.3
					C304.2,501.3,305.4,500.7,306.6,500.7 M306.6,494.8c-4.2,0-7.7,3.6-7.7,7.7v11.3c0,4.2,3.6,7.7,7.7,7.7s7.7-3.6,7.7-7.7v-11.3
					C314.3,498.3,310.7,494.8,306.6,494.8L306.6,494.8z"/>
			</g>
		</g>
	</g>
	<path fill="#56BBE7" stroke="#48494E" stroke-width="2" stroke-miterlimit="10" d="M363.1,347.1c0,7.7-5.4,16.1-11.9,16.1H253
		c-6.5,0-11.9-7.7-11.9-16.1l0,0c0-7.7,5.4-16.1,11.9-16.1h98.2C357.8,331.1,363.1,339.4,363.1,347.1L363.1,347.1z"/>
</g>
<path fill="#48494E" d="M403.6,319.2c-1.2-2.4-3-3.6-4.8-3l-40.5,17.3c-1.8,0.6-2.4,3-1.2,6l0.6,1.2c1.2,2.4,3,3.6,4.8,3l40.5-17.3
	c1.8-0.6,2.4-3,1.2-6L403.6,319.2z"/>
<path fill="#48494E" d="M432.8,335.8c-0.6-2.4-2.4-4.2-5.4-3.6l-62.5,11.9c-2.4,0.6-4.2,3-3.6,5.4v1.2c0.6,2.4,2.4,4.2,5.4,3.6
	l62.5-11.9c2.4-0.6,4.2-3,3.6-5.4V335.8z"/>
</svg>
