<?xml version="1.0" encoding="utf-8"?>
<!-- Generator: Adobe Illustrator 18.1.1, SVG Export Plug-In . SVG Version: 6.00 Build 0)  -->
<svg version="1.1" id="Layer_1" xmlns="http://www.w3.org/2000/svg" xmlns:xlink="http://www.w3.org/1999/xlink" x="0px" y="0px"
	 viewBox="0 217.9 595.3 436.9" enable-background="new 0 217.9 595.3 436.9" xml:space="preserve">
<g id="Layer_1_1_">
</g>
<g id="icons">
	<g>
		<path fill="#E1E1E1" d="M150.6,484.7H81l40.5-125h106l6.5,20.2c1.8-1.8,3.6-3,6-4.2l-7.1-21.4c-0.6-1.8-1.8-2.4-3-2.4H118.5
			c-1.8,0-2.4,1.2-3,2.4L72.6,487.1c-0.6,1.2,0,2.4,0.6,3c0.6,1.2,1.8,1.8,2.4,1.8h75C150.6,489.5,150.6,487.1,150.6,484.7z"/>
		<path fill="#E1E1E1" d="M211.3,383.5c-2.4,0-3-1.8-3-3.6v-63.1c0-16.1-11.9-26.8-29.8-26.8h-8.3c-17.9,0-30.4,11.3-30.4,26.8v63.7
			c0,2.4-1.8,3.6-3,3.6c-2.4,0-3-1.8-3-3.6v-63.7c0-20.8,14.9-33.9,36.9-33.9h8.3c21.4,0,36.3,13.7,36.3,33.9v63.7
			C215.5,382.3,213.7,383.5,211.3,383.5z"/>
	</g>
	<g>
		<path fill="#E1E1E1" d="M293.5,447.2H172c-1.8,0-3-1.2-3-2.4v-50c0-1.8,1.8-2.4,3-2.4h121.4c1.8,0,3,1.2,3,2.4v50
			C296.4,446.6,295.3,447.2,293.5,447.2z M175,441.9h114.9v-44.1H175V441.9z"/>
		<path fill="#E1E1E1" d="M325,558.6H139.9c-1.8,0-3-1.2-3-2.4v-33.3c0-1.8,1.8-2.4,3-2.4H325c1.8,0,3,1.2,3,2.4v33.3
			C328,557.4,326.8,558.6,325,558.6z M142.9,553.2H322v-28H142.9V553.2z"/>
		<path fill="#E1E1E1" d="M317.3,523.4c-1.8,0-3-1.2-3-2.4c0-39.3-10.7-73.2-17.3-73.2h-128c-6.5,0-16.7,34.5-16.7,73.2
			c0,1.8-1.8,2.4-3,2.4c-1.8,0-3-1.2-3-2.4c0-27.4,7.1-79.2,23.2-79.2h128c16.7,0,23.8,51.2,23.8,79.2
			C320.3,522.2,318.5,523.4,317.3,523.4z"/>
		<path fill="#E1E1E1" d="M273.8,430.6h-82.7c-1.8,0-3-1.2-3-2.4v-16.7c0-1.8,1.8-2.4,3-2.4h82.7c1.8,0,3,1.2,3,2.4v16.7
			C276.8,429.4,276.2,430.6,273.8,430.6z M194.1,425.2h76.8v-11.3h-76.8V425.2z"/>
		<path fill="#E1E1E1" d="M189.3,475.2h-12.5c-1.8,0-3-1.2-3-2.4v-11.3c0-1.8,1.8-2.4,3-2.4h12.5c1.8,0,3,1.2,3,2.4v11.3
			C192.9,474,191.7,475.2,189.3,475.2z M179.8,469.9h6.5v-6h-6.5V469.9z"/>
		<path fill="#E1E1E1" d="M221.4,475.2h-12.5c-1.8,0-3-1.2-3-2.4v-11.3c0-1.8,1.8-2.4,3-2.4h12.5c1.8,0,3,1.2,3,2.4v11.3
			C225,474,223.2,475.2,221.4,475.2z M211.9,469.9h6.5v-6h-6.5V469.9z"/>
		<path fill="#E1E1E1" d="M253.6,475.2h-12.5c-1.8,0-3-1.2-3-2.4v-11.3c0-1.8,1.8-2.4,3-2.4h12.5c1.8,0,3,1.2,3,2.4v11.3
			C256.6,474,255.4,475.2,253.6,475.2z M244.1,469.9h6v-6h-6V469.9z"/>
		<path fill="#E1E1E1" d="M189.3,497.8h-12.5c-1.8,0-3-1.2-3-2.4v-11.3c0-1.8,1.8-2.4,3-2.4h12.5c1.8,0,3,1.2,3,2.4v11.3
			C192.9,496,191.7,497.8,189.3,497.8z M179.8,491.9h6.5v-6h-6.5V491.9z"/>
		<path fill="#E1E1E1" d="M221.4,497.8h-12.5c-1.8,0-3-1.2-3-2.4v-11.3c0-1.8,1.8-2.4,3-2.4h12.5c1.8,0,3,1.2,3,2.4v11.3
			C225,496,223.2,497.8,221.4,497.8z M211.9,491.9h6.5v-6h-6.5V491.9z"/>
		<path fill="#E1E1E1" d="M253.6,497.8h-12.5c-1.8,0-3-1.2-3-2.4v-11.3c0-1.8,1.8-2.4,3-2.4h12.5c1.8,0,3,1.2,3,2.4v11.3
			C256.6,496,255.4,497.8,253.6,497.8z M244.1,491.9h6v-6h-6V491.9z"/>
		<path fill="#E1E1E1" d="M286.3,497.8h-12.5c-1.8,0-3-1.2-3-2.4v-28c0-1.8,1.8-2.4,3-2.4h12.5c1.8,0,3,1.2,3,2.4v28
			C289.9,496,288.7,497.8,286.3,497.8z M276.8,491.9h6.5v-22h-6.5V491.9z"/>
	</g>
	<ellipse fill="#DDDDDD" cx="392.3" cy="588.3" rx="75" ry="7.7"/>
	<g>
		<polygon fill="#DBD7D6" points="363.1,325.2 391.7,301.4 409,300.8 432.2,326.4 433.4,451.4 364.3,449.6 		"/>
		<ellipse fill="#FFFFFF" cx="402.4" cy="325.8" rx="11.9" ry="11.9"/>
		<path fill="#48494E" stroke="#48494E" stroke-width="0.25" stroke-miterlimit="10" d="M410.7,335.9c-2.4,2.4-7.1,4.2-10.7,4.2
			c-8.3,0-15.5-7.1-14.9-15.5c0-7.7,7.1-14.9,15.5-14.9c8.3,0,15.5,7.1,14.9,15.5C414.9,329.4,413.1,332.9,410.7,335.9z
			 M392.9,317.5c-2.4,2.4-3,4.2-3,7.1c0,6,4.2,10.1,10.1,10.1c5.4,0,10.1-4.8,10.1-10.1c0-6-4.2-10.1-10.1-10.1
			C397.6,315.1,394.7,316.3,392.9,317.5z"/>
		<path fill="#48494E" stroke="#48494E" stroke-width="0.25" stroke-miterlimit="10" d="M435.1,452.6c-0.6,0.6-1.2,0.6-1.8,0.6
			l-69.1-0.6c-0.6,0-1.2-0.6-1.8-0.6c-0.6-0.6-0.6-1.2-0.6-1.8l1.2-125c0-0.6,0.6-1.8,1.2-1.8l20.8-19.6l0,0
			c4.2-3.6,9.5-6.5,15.5-6.5c6,0,11.3,2.4,15.5,6.5l20.8,19.6c0.6,0.6,1.2,1.2,1.2,2.4l-0.6,125.6C436.3,452,435.7,452,435.1,452.6z
			 M367.3,447.8l63.7,0.6l0.6-122l-20.2-19.6c-6.5-6.5-16.7-6.5-23.2,0l-20.8,19L367.3,447.8z"/>
	</g>
	<g>
		<polygon fill="#59BBE8" points="432.2,328.2 465.5,313.3 482.8,317.5 498.2,348.4 465.5,468.7 399.4,448.4 		"/>
		<ellipse fill="#FFFFFF" cx="469.7" cy="339.5" rx="11.9" ry="11.9"/>
		<polygon opacity="0.69" fill="#80C3ED" enable-background="new    " points="497.1,343.7 498.2,343.1 465.5,463.3 399.4,443.1 		
			"/>
		<path fill="#48494E" stroke="#48494E" stroke-width="0.5" stroke-miterlimit="10" d="M467.3,470.4c-0.6,0.6-1.2,0.6-2.4,0
			L398.8,452c-0.6,0-1.2-0.6-1.8-1.2c-0.6-0.6-0.6-1.2,0-2.4l35.1-120.8c0-0.6,0.6-1.2,1.2-1.8l25.6-13.1l0,0
			c4.8-2.4,10.7-3,16.1-1.8c5.4,1.8,10.1,5.4,12.5,10.1l14.9,25c0.6,0.6,0.6,1.8,0,2.4l-35.1,120.8
			C467.9,470.4,467.9,470.4,467.3,470.4z M402.4,447.8l61.9,17.9l33.9-117.3L484,324.6c-4.2-7.7-14.3-11.3-22-6.5l-25,12.5
			L402.4,447.8z"/>
		<path fill="#48494E" stroke="#48494E" stroke-width="0.25" stroke-miterlimit="10" d="M475,351.4c-3.6,2.4-7.1,2.4-11.9,1.2
			c-7.7-2.4-12.5-10.7-10.7-18.5c2.4-7.7,11.3-12.5,18.5-10.7c7.7,2.4,12.5,10.7,10.7,18.5C481,346,478.6,349.6,475,351.4z
			 M462.5,329.4c-2.4,1.2-4.2,3.6-4.8,6c-1.8,5.4,1.8,11.3,7.1,12.5c5.4,1.8,11.3-1.8,12.5-7.1c1.2-5.4-1.8-11.3-7.1-12.5
			C467.3,327.6,464.9,328.2,462.5,329.4z"/>
	</g>
	<g>
		<polygon fill="#DAD472" points="366.1,324.6 333.4,307.3 316.1,310.3 298.8,340.1 323.2,462.1 389.9,446.6 		"/>
		<polygon fill="#E3DE9E" points="299.4,338.3 298.8,340.1 323.2,462.1 389.9,446.6 		"/>
		<ellipse fill="#FFFFFF" cx="331" cy="332.3" rx="11.9" ry="11.9"/>
		<path fill="#48494E" stroke="#48494E" stroke-width="0.25" stroke-miterlimit="10" d="M319.7,462.7l-26.2-123.2
			c0-0.6,0-1.8,0.6-2.4l16.7-23.8c3-4.8,7.7-7.7,13.7-9.5c6-1.2,11.3,0,16.1,3l0,0l25,14.9c0.6,0.6,1.2,1.2,1.2,1.8l26.2,123.8
			c0,0.6,0,1.8-0.6,2.4c-0.6,0.6-1.2,1.2-1.8,1.2l-67.3,14.3c-0.6,0-1.8,0-2.4-0.6S319.7,463.3,319.7,462.7z M361.3,326.4
			l-23.8-14.3c-7.1-4.8-17.9-2.4-22.6,4.8l-16.1,22.6l25.6,119.1l62.5-13.1L361.3,326.4z"/>
		<path fill="#48494E" stroke="#48494E" stroke-width="0.25" stroke-miterlimit="10" d="M314.9,335.3c-1.8-7.7,3.6-16.1,11.9-17.9
			c7.7-1.8,16.1,3.6,17.9,11.9c1.8,7.7-3.6,16.1-11.9,17.9c-3.6,1.2-7.7,0-11.9-2.4C318.5,342.5,316.1,339.5,314.9,335.3z
			 M328,322.2c-5.4,1.2-8.9,6.5-7.7,11.9c1.2,5.4,7.1,8.9,11.9,7.7c5.4-1.2,8.9-6.5,7.7-11.9c-0.6-2.4-2.4-4.8-4.2-6.5
			C332.8,321.6,330.4,321.6,328,322.2z"/>
		<g enable-background="new    ">
			<path fill="#48494E" d="M326.2,355c0-0.6,0.6-1.2,1.8-1.2c1.2-0.6,2.4,0.6,3,1.8c0,0.6,0,1.2,0,1.2c-0.6,1.8-1.2,4.2-0.6,6
				s1.8,3,3,2.4l0,0c1.2-0.6,1.8-1.2,1.8-4.8c0-4.8,0.6-7.7,4.8-8.9l0,0c4.2-1.2,7.1,1.2,8.3,6c0.6,2.4,0.6,4.8,0,7.1
				c0,0.6-0.6,1.2-1.8,1.8c-1.2,0.6-2.4-0.6-3-1.8c0-0.6,0-0.6,0-1.2c0.6-1.8,0.6-3.6,0-4.8c-0.6-1.8-1.8-2.4-2.4-2.4l0,0
				c-1.8,0.6-1.8,1.2-1.8,5.4c0,4.8-1.2,7.7-4.8,8.3l0,0c-4.2,1.2-7.7-1.8-8.9-6C325,360.9,325,357.9,326.2,355z"/>
			<path fill="#48494E" d="M332.2,374l19,3c1.2,0,2.4,1.2,2.4,2.4l0,0c0.6,1.2,0,2.4-1.2,3l-14.9,11.9c-0.6,0-0.6,0.6-1.2,0.6
				c-1.2,0.6-2.4-0.6-3-1.8c0-1.2,0-1.8,1.2-3l3-2.4l-2.4-9.5h-3.6c-1.2,0-1.8-0.6-1.8-1.8c-0.6-1.2,0.6-2.4,1.8-3
				C331,373.4,331.6,373.4,332.2,374z M341.1,385.3l6.5-4.8l-7.7-1.2L341.1,385.3z"/>
			<path fill="#48494E" d="M354.8,394.3c1.2-0.6,2.4,0.6,3,1.8c0.6,1.2-0.6,2.4-1.8,3l-14.9,4.2l2.4,8.9c0.6,1.2-0.6,2.4-1.8,3
				c-1.2,0.6-2.4-0.6-3-1.8l-3-11.3c-0.6-1.2,0.6-2.4,1.8-3L354.8,394.3z"/>
			<path fill="#48494E" d="M342.9,417.5l16.7-4.2c1.2-0.6,2.4,0.6,3,1.8l3,11.9c0.6,1.2-0.6,2.4-1.8,2.4c-1.2,0-2.4-0.6-2.4-1.8
				l-2.4-9.5l-4.2,1.2l2.4,8.3c0.6,1.2-0.6,2.4-1.8,2.4c-1.2,0-2.4-0.6-2.4-1.8l-2.4-8.3l-4.8,1.2l2.4,9.5c0.6,1.2-0.6,2.4-1.8,2.4
				c-1.2,0.6-2.4-0.6-2.4-1.8l-3-11.9C340.5,419.3,341.1,418.1,342.9,417.5z"/>
		</g>
	</g>
	<polygon fill="#998C84" points="280.4,399.6 325.6,521.6 467.9,522.8 500,433.5 	"/>
	<ellipse fill="#998C84" cx="435.7" cy="560.3" rx="17.9" ry="20.2"/>
	<ellipse fill="#998C84" cx="358.4" cy="562.1" rx="19" ry="20.8"/>
	<g>
		<path fill="#48494E" d="M469.1,528.8H323.8c-2.4,0-4.2-1.8-4.8-3l-55.4-144.7h-33.3v10.7c0,3-2.4,5.4-5.4,5.4s-4.8-2.4-4.8-5.4
			v-16.1c0-3,2.4-5.4,5.4-5.4h41.7c2.4,0,4.2,1.8,4.8,3l55.4,144.7h137.5l31.5-85.7l-222-32.7c-2.4-0.6-4.8-4.2-4.8-7.1
			c0.6-6,39.3,1.8,42.9,2.4l192.3,28.6c1.8,0,3,1.2,3.6,2.4c1.2,1.8,1.2,3,0.6,4.8l-35.1,95.2C473.2,527,471.5,528.8,469.1,528.8z"
			/>
		<path fill="#48494E" d="M358.4,544.9c8.9,0,16.1,7.1,16.1,16.1s-7.1,16.1-16.1,16.1s-16.1-7.1-16.1-16.1
			C342.3,552.6,349.4,544.9,358.4,544.9 M358.4,534.7c-14.9,0-26.8,11.9-26.8,26.8c0,14.9,11.9,26.8,26.8,26.8s26.8-11.9,26.8-26.8
			C385.1,546.6,373.2,534.7,358.4,534.7L358.4,534.7z"/>
		<path fill="#48494E" d="M434.6,544.9c8.9,0,16.1,7.1,16.1,16.1s-7.1,16.1-16.1,16.1s-16.1-7.1-16.1-16.1
			C418.5,552.6,425.6,544.9,434.6,544.9 M434.6,534.7c-14.9,0-26.8,11.9-26.8,26.8c0,14.9,11.9,26.8,26.8,26.8
			c14.9,0,26.8-11.9,26.8-26.8C461.3,546.6,448.8,534.7,434.6,534.7L434.6,534.7z"/>
	</g>
	<ellipse fill="#FFFFFF" cx="357.8" cy="560.9" rx="10.1" ry="9.5"/>
	<ellipse fill="#FFFFFF" cx="434.6" cy="560.3" rx="9.5" ry="8.9"/>
</g>
<path fill="#48494E" d="M439.3,396.6c-1.2,1.2-1.2,3,0.6,4.2l0,0c1.2,1.2,3,1.2,4.2-0.6l24.4-29.2c1.2-1.2,1.2-3-0.6-4.2l0,0
	c-1.2-1.2-3-1.2-4.2,0.6L439.3,396.6z"/>
<ellipse fill="#59BBE8" stroke="#48494E" stroke-miterlimit="10" cx="442.9" cy="374" rx="7.7" ry="7.7"/>
<ellipse fill="#59BBE8" stroke="#48494E" stroke-miterlimit="10" cx="467.3" cy="391.9" rx="7.7" ry="7.7"/>
</svg>
