<?xml version="1.0" encoding="utf-8"?>
<!-- Generator: Adobe Illustrator 18.1.1, SVG Export Plug-In . SVG Version: 6.00 Build 0)  -->
<svg version="1.1" id="Layer_1" xmlns="http://www.w3.org/2000/svg" xmlns:xlink="http://www.w3.org/1999/xlink" x="0px" y="0px"
	 viewBox="0 208.4 595.3 436.9" enable-background="new 0 208.4 595.3 436.9" xml:space="preserve">
<g id="Layer_1_1_">
</g>
<g id="icons">
	<g>
		<path fill="#DDDDDD" d="M530.9,551.1c-2.1,0-3.7-1.6-3.7-3.7V341.6c0-2.1,1.6-3.7,3.7-3.7s3.7,1.6,3.7,3.7v205.8
			C534.6,549.5,533,551.1,530.9,551.1z"/>
		<path fill="#DDDDDD" d="M530.9,411.2c-20.1,0-35.4-14.8-35.4-33.8v-35.4c0-2.1,1.6-3.7,3.7-3.7c2.1,0,3.7,1.6,3.7,3.7v35.4
			c0,15.3,11.6,26.9,27.4,26.9s27.4-11.6,27.4-26.9v-35.4c0-2.1,1.6-3.7,3.7-3.7c2.1,0,3.7,1.6,3.7,3.7v35.4
			C566.3,397,551,411.2,530.9,411.2z"/>
	</g>
	<g>
		<path fill="#DDDDDD" d="M483.4,551.6c2.1,0,3.7-1.6,3.7-3.7V351.6c0-2.1-1.6-3.7-3.7-3.7c-2.1,0-3.7,1.6-3.7,3.7v196.3
			C479.2,550,481.3,551.6,483.4,551.6z"/>
		<path fill="#DDDDDD" d="M451.7,433.9c2.1,0,3.7-1.6,3.7-3.7v-79.7c0-5.3,6.9-10,11.6-10c5.3,0,11.6,4.2,11.6,9v25.3
			c0,2.1,1.6,3.7,3.7,3.7c2.1,0,3.7-1.6,3.7-3.7v-25.3c0-10-10.6-16.9-19.5-16.9S447,340.5,447,350v79.7
			C448,432.4,449.6,433.9,451.7,433.9z"/>
		<path fill="#DDDDDD" d="M468.1,456.1c9.5,0,20.6-7.4,20.6-16.9c0-2.1-1.6-3.7-3.7-3.7c-2.1,0-3.7,1.6-3.7,3.7c0,4.7-6.9,9-12.7,9
			c-5.3,0-12.7-4.7-12.7-9.5v-16.9c0-2.1-1.6-3.7-3.7-3.7c-2.1,0-3.7,1.6-3.7,3.7v16.9C448,448.7,458.6,456.1,468.1,456.1z"/>
	</g>
	<g>
		<path fill="#DDDDDD" d="M149.9,517.9H60.2c-2.1,0-3.7-1.6-3.7-3.7V354.8c0-2.1,1.6-3.7,3.7-3.7h90.2c2.1,0,3.7,1.6,3.7,3.7v159.4
			C153.6,516.3,152,517.9,149.9,517.9z M63.3,511h83.4V358.5H63.3V511z"/>
		<path fill="#DDDDDD" d="M120.9,418.6c-11.1,0-21.1-1.6-29.6-2.6c-12.7-2.1-22.7-3.7-30.6,0c-1.6,1.1-3.7,0-4.7-1.6
			c-1.1-1.6,0-3.7,1.6-4.7c10-4.7,21.1-2.6,34.8-0.5c14.8,2.1,31.1,4.7,50.1,0.5c2.1-0.5,3.7,0.5,4.2,2.6c0.5,2.1-0.5,3.7-2.6,4.2
			C135.6,418.1,128.2,418.6,120.9,418.6z"/>
		<path fill="#DDDDDD" d="M87.6,494.1c-0.5,0-0.5,0-1.1,0c-1.6-0.5-3.2-2.6-2.6-4.2l43.3-156.2c0.5-1.1,1.1-2.1,2.6-2.6l34.8-8.4
			c1.6-0.5,3.7,0.5,4.2,2.6c0.5,2.1-0.5,3.7-2.6,4.2l-32.7,7.9L90.8,491.5C90.8,493,89.2,494.1,87.6,494.1z"/>
		<path fill="#DDDDDD" d="M40.1,394.9c-0.5,0-1.1,0-1.6-0.5c-14.8-7.4-23.7-21.6-23.7-38c0-23.2,19-42.2,42.2-42.2
			c15.8,0,30.6,9,38,23.7c1.1,1.6,0,3.7-1.6,4.7c-1.6,1.1-3.7,0-4.7-1.6c-6.3-12.1-18.5-19.5-31.7-19.5c-19.5,0-35.4,15.8-35.4,35.4
			c0,13.2,7.4,25.3,19.5,31.7c1.6,1.1,2.6,3.2,1.6,4.7C42.7,393.8,41.2,394.9,40.1,394.9z"/>
		<path fill="#DDDDDD" d="M35.9,372.7c-1.1,0-1.6-0.5-2.6-1.1c-1.6-1.6-1.6-3.7,0-4.7l8.4-8.4c1.6-1.6,3.7-1.6,4.7,0
			c1.6,1.6,1.6,3.7,0,4.7l-8.4,8.4C37.5,372.7,36.4,372.7,35.9,372.7z"/>
		<path fill="#DDDDDD" d="M61.7,346.9c-1.1,0-1.6-0.5-2.6-1.1c-1.6-1.6-1.6-3.7,0-4.7l8.4-8.4c1.6-1.6,3.7-1.6,4.7,0
			c1.6,1.6,1.6,3.7,0,4.7l-8.4,8.4C63.3,346.9,62.8,346.9,61.7,346.9z"/>
		<path fill="#DDDDDD" d="M48.6,351.6c-1.1,0-1.6-0.5-2.6-1.1l-8.4-9c-1.6-1.6-1.1-3.7,0-4.7c1.6-1.6,3.7-1.1,4.7,0l8.4,9
			c1.6,1.6,1.1,3.7,0,4.7C50.1,351.1,49.6,351.6,48.6,351.6z"/>
	</g>
	<polygon fill="#E4E0DD" points="150.9,427.6 178.4,393.3 181,520 386.3,519.4 387.9,400.7 412.7,417.1 415.3,547.4 151.5,552.7 	
		"/>
	<path fill="#ADA49D" d="M164.7,339l240.1,2.6l30.1,49.1c0,0-2.6,35.4-20.1,33.2c-17.4-1.6-26.4-23.7-26.4-23.7s-7.9,21.1-23.7,21.1
		s-29-19.5-29-19.5s-10.6,19.5-27.4,19.5c-16.9,0-29.6-25.3-29.6-25.3s-3.7,27.4-20.6,26.4c-16.9-1.1-29-24.8-29-24.8
		s-3.7,23.7-27.4,22.7c-23.7-1.1-22.7-27.4-22.7-27.4s-18.5,36.9-35.4,28s-17.4-34.8-17.4-34.8L164.7,339z"/>
	<path fill="#9E9590" d="M130.9,387.5l304.5-1.1l4.2,4.2c0,0-2.6,35.4-20.1,33.2c-17.4-1.6-26.4-23.7-26.4-23.7s-7.9,21.1-23.7,21.1
		c-15.8,0-29-19.5-29-19.5s-10.6,19.5-27.4,19.5c-16.9,0-29.6-25.3-29.6-25.3s-3.7,27.4-20.6,26.4c-16.9-1.1-29-24.8-29-24.8
		s-3.7,23.7-27.4,22.7c-23.7-1.1-22.7-27.4-22.7-27.4s-18.5,36.9-35.4,28s-17.4-34.8-17.4-34.8V387.5z"/>
	<rect x="202.1" y="246.6" fill="#DCD472" width="158.3" height="47.5"/>
	<line fill="none" x1="140.9" y1="380.1" x2="423.8" y2="378.5"/>
	<g>
		<path fill="#48494E" d="M415.3,555.8H151.5c-3.2,0-5.3-2.1-5.3-5.3V418.6h10.6v126.7H410V418.6h10.6v131.9
			C420.6,553.2,418,555.8,415.3,555.8z"/>
		<path fill="#48494E" d="M383.7,524.2H183.1c-3.2,0-5.3-2.1-5.3-5.3V418.6c0-3.2,2.1-5.3,5.3-5.3c3.2,0,5.3,2.1,5.3,5.3v95h190v-95
			c0-3.2,2.1-5.3,5.3-5.3s5.3,2.1,5.3,5.3v100.3C388.9,521.5,386.3,524.2,383.7,524.2z"/>
		<path fill="#48494E" d="M412.7,427.6c-10.6,0-19-5.3-24.3-13.7c-5.8,7.9-15.3,13.7-25.9,13.7c-11.1,0-20.6-5.8-26.4-14.2
			c-5.8,8.4-15.3,14.2-26.4,14.2s-20.6-5.8-26.4-14.2c-5.8,8.4-15.3,14.2-26.4,14.2c-11.1,0-20.6-5.8-26.4-14.2
			c-5.8,8.4-15.3,14.2-26.4,14.2s-21.1-5.8-26.4-14.2c-5.8,8.4-15.8,14.2-26.9,14.2c-14.2,0-25.9-14.2-25.9-31.7v-6.3
			c0-1.1,0.5-2.1,1.1-3.2l34.3-50.1c1.1-1.6,2.6-2.1,4.2-2.1h238c1.6,0,3.2,1.1,4.2,2.1l33.8,50.1c0.5,1.1,1.1,2.1,1.1,3.2v6.3
			C441.7,414.4,429.6,427.6,412.7,427.6z M394.2,395.9c0,10,5.8,21.1,18.5,21.1c12.7,0,18.5-11.1,18.5-21.1v-4.7l-31.7-46.4H167.3
			l-31.7,46.4v4.7c0,11.1,7.4,21.1,15.3,21.1c11.6,0,21.6-9.5,21.6-21.1c0-3.2,2.1-5.3,5.3-5.3c3.2,0,5.3,2.1,5.3,5.3
			c0,11.6,9.5,21.1,21.1,21.1s21.1-9.5,21.1-21.1c0-3.2,2.1-5.3,5.3-5.3c3.2,0,5.3,2.1,5.3,5.3c0,11.6,9.5,21.1,21.1,21.1
			c11.6,0,21.1-9.5,21.1-21.1c0-3.2,2.1-5.3,5.3-5.3s5.3,2.1,5.3,5.3c0,11.6,9.5,21.1,21.1,21.1s21.1-9.5,21.1-21.1
			c0-3.2,2.1-5.3,5.3-5.3c3.2,0,5.3,2.1,5.3,5.3c0,11.6,9.5,21.1,21.1,21.1s21.1-9.5,21.1-21.1c0-3.2,2.1-5.3,5.3-5.3
			C392.1,390.7,394.2,393.3,394.2,395.9z"/>
		<path fill="#48494E" d="M362.6,302.5H204.2c-3.2,0-5.3-2.1-5.3-5.3v-52.8c0-3.2,2.1-5.3,5.3-5.3h158.3c3.2,0,5.3,2.1,5.3,5.3v52.8
			C367.8,299.9,365.2,302.5,362.6,302.5z M209.5,292h147.8v-42.2H209.5L209.5,292L209.5,292z"/>
		<rect x="230.6" y="302.5" fill="#48494E" width="10.6" height="31.7"/>
		<rect x="325.6" y="302.5" fill="#48494E" width="10.6" height="31.7"/>
	</g>
	<g>
		<ellipse fill="#DDDDDD" cx="428.5" cy="606" rx="36.9" ry="11.1"/>
		<path fill="#58BBE5" d="M427.5,590.2l-44.3-64.9l11.6-43.8c0,0,14.8-14.2,36.4-15.3c21.6-1.1,41.2,23.2,41.2,23.2l2.1,38
			l-43.3,62.8"/>
		<path fill="#83C2EE" d="M431.2,592.8c0,0-1.6-96.6-0.5-123c1.1-21.6,41.7,20.1,41.7,20.1l2.1,38l-43.3,64.4"/>
		<circle fill="#FFFFFF" cx="430.1" cy="504.1" r="14.8"/>
		<g>
			<path fill="#48494E" stroke="#48494E" stroke-width="0.75" stroke-miterlimit="10" d="M430.6,522.1c-9.5,0-16.9-7.4-16.9-16.9
				s7.4-16.9,16.9-16.9c9.5,0,16.9,7.4,16.9,16.9C448,514.2,440.1,522.1,430.6,522.1z M430.6,492.5c-6.9,0-12.1,5.3-12.1,12.1
				s3.7,12.1,12.1,12.1s12.1-5.3,12.1-12.1C443.3,498.3,437.5,492.5,430.6,492.5z"/>
			<path fill="#48494E" stroke="#48494E" stroke-width="0.75" stroke-miterlimit="10" d="M430.6,601.8c-1.1,0-2.1-1.1-2.1-2.1
				c0-4.2-15.3-36.9-28.5-50.1c-7.9-7.9-18.5-21.1-18.5-38c0-26.9,22.2-49.1,49.1-49.1c26.9,0,49.1,22.2,49.1,49.1
				c0,14.8-7.4,28.5-21.1,40.6c-16.4,13.7-25.3,43.8-25.3,48C433.3,600.7,432.2,601.8,430.6,601.8z M430.6,466.7
				c-24.3,0-44.3,20.1-44.3,44.3c0,11.6,5.3,23.2,16.9,34.8c10,10.6,21.6,31.7,26.9,44.3c3.7-12.1,12.1-31.7,25.3-42.7
				c9-7.4,19.5-20.1,19.5-36.9C475.5,486.2,455.4,466.7,430.6,466.7z"/>
		</g>
	</g>
</g>
</svg>
