<?xml version="1.0" encoding="utf-8"?>
<!-- Generator: Adobe Illustrator 18.1.1, SVG Export Plug-In . SVG Version: 6.00 Build 0)  -->
<svg version="1.1" id="Layer_1" xmlns="http://www.w3.org/2000/svg" xmlns:xlink="http://www.w3.org/1999/xlink" x="0px" y="0px"
	 viewBox="0 358.4 595.3 200.5" enable-background="new 0 358.4 595.3 200.5" xml:space="preserve">
<rect x="-231.6" y="244.7" display="none" fill="#311601" width="1075.1" height="471.5"/>
<g>
	<path fill="#2AB4FC" d="M78,553.1c-42.9,0-72.6-29.2-72.6-72v-1.2c0-39.3,28-72,68.5-72c47,0,67.9,37.5,67.9,67.9
		c0,11.3-8.3,18.5-18.5,18.5H44.6c4.2,17.9,16.7,26.8,34.5,26.8c11.3,0,19.6-4.2,28-9.5c3-1.8,5.4-3,9.5-3c8.3,0,15.5,6,15.5,15.5
		c0,5.4-1.8,9.5-5.4,11.3C114.3,546.5,98.8,553.1,78,553.1z M103.6,469.7c-1.8-17.9-12.5-30.4-29.2-30.4s-26.8,11.3-30.4,29.2
		L103.6,469.7L103.6,469.7z"/>
	<path fill="#2AB4FC" d="M145.2,481L145.2,481c0-40.5,30.4-72.6,73.8-72.6c22,0,36.3,5.4,47.6,15.5c1.8,1.8,6,6,6,13.7
		c0,9.5-8.3,17.9-17.9,17.9c-5.4,0-9.5-1.8-11.3-4.2c-6-5.4-14.3-8.3-25-8.3c-19.6,0-33.3,16.7-33.3,37.5v1.2
		c0,22,14.3,38.7,35.1,38.7c10.1,0,18.5-4.2,26.2-9.5c1.8-1.8,6-4.2,11.3-4.2c9.5,0,16.7,7.1,16.7,16.7c0,5.4-1.8,9.5-5.4,12.5
		c-11.3,11.3-26.2,17.9-50,17.9C175.6,553.1,145.2,520.3,145.2,481z"/>
	<path fill="#2AB4FC" d="M281.6,378c0-11.3,8.3-19.6,19.6-19.6c11.3,0,20.2,8.3,20.2,19.6v51.8c9.5-11.3,20.8-22.6,40.5-22.6
		c30.4,0,47,19.6,47,51.2v72c0,11.3-8.3,19.6-19.6,19.6s-19.6-8.3-19.6-19.6v-58.3c0-18.5-8.3-28-23.8-28s-25,9.5-25,28v59.5
		c0,11.3-8.3,19.6-19.6,19.6c-11.3,0-19.6-8.3-19.6-19.6L281.6,378L281.6,378z"/>
	<path fill="#D9C92A" d="M417.3,481L417.3,481c0-40.5,32.1-72.6,76.2-72.6c43.5,0,75,32.1,75,72v1.2c0,39.3-32.1,72-76.2,72
		C449.4,553.1,417.3,520.3,417.3,481z M528.6,481L528.6,481c0-20.8-14.3-39.3-36.3-39.3c-22.6,0-36.3,16.7-36.3,37.5v1.2
		c0,19.6,14.3,38.7,36.3,38.7C514.9,518.5,528.6,500.7,528.6,481z"/>
</g>
<circle fill="#D9C92A" cx="572.1" cy="407.2" r="19.6"/>
</svg>
