<?xml version="1.0" encoding="utf-8"?>
<!-- Generator: Adobe Illustrator 18.1.1, SVG Export Plug-In . SVG Version: 6.00 Build 0)  -->
<svg version="1.1" id="Layer_1" xmlns="http://www.w3.org/2000/svg" xmlns:xlink="http://www.w3.org/1999/xlink" x="0px" y="0px"
	 viewBox="0 0 559 410.9" enable-background="new 0 0 559 410.9" xml:space="preserve">
<g id="icons_1_">
	<ellipse fill="#D8D8D8" cx="55.1" cy="330.7" rx="55.1" ry="11.5"/>
</g>
<g id="Layer_1_2_">
	<g id="Layer_1_1_">
	</g>
	<g id="icons">
		<g>
			<path fill="#E1E1E1" d="M419.9,142.3H306.2c0,0.6,0,1.1,0,1.7c0,2.3,0,3.4,0,5.7H417v159.1H291.8v-44.2c-2.3,0.6-4,1.1-6.3,1.7
				v46.5c0,2.3,1.7,3.4,2.9,3.4h131.5c1.7,0,2.9-1.7,2.9-3.4V145.8C423.3,144,421.6,142.3,419.9,142.3z"/>
			<path fill="#E1E1E1" d="M401.5,163h-93.6c-1.1,0-2.3,0.6-2.3,1.7c-0.6,4-0.6,8-0.6,12.1v23.6c1.1,13.8,2.3,27.6,2.9,41.4
				c0,5.2-1.1,9.8-2.9,13.2v37.3c0,2.3,1.7,3.4,2.9,3.4h93.6c1.7,0,2.9-1.7,2.9-3.4V166.4C404.4,164.7,402.7,163,401.5,163z
				 M398.1,287.6h-87.3V169.9h87.3L398.1,287.6L398.1,287.6z"/>
			<path fill="#E1E1E1" d="M379.7,197.5h-50c-1.7,0-2.9-1.7-2.9-3.4c0-1.7,1.7-3.4,2.9-3.4h50c1.7,0,2.9,1.7,2.9,3.4
				C382.6,196.3,381.4,197.5,379.7,197.5z"/>
			<path fill="#E1E1E1" d="M379.7,225.6h-50c-1.7,0-2.9-1.7-2.9-3.4c0-2.3,1.7-3.4,2.9-3.4h50c1.7,0,2.9,1.7,2.9,3.4
				C382.6,223.9,381.4,225.6,379.7,225.6z"/>
			<path fill="#E1E1E1" d="M379.7,253.2h-50c-1.7,0-2.9-1.7-2.9-3.4c0-2.3,1.7-3.4,2.9-3.4h50c1.7,0,2.9,1.7,2.9,3.4
				C382.6,251.4,381.4,253.2,379.7,253.2z"/>
		</g>
		<g>
			<path fill="#E1E1E1" d="M486.5,89.5v114.9c2.3,0,4,0.6,6.3,1.7V86c0-2.3-1.7-3.4-2.9-3.4H357.9c-1.7,0-2.9,1.7-2.9,3.4v56.3
				c2.3-1.1,4.6,2.3,6.9,2.3l-0.6-55.7L486.5,89.5L486.5,89.5z"/>
			<path fill="#E1E1E1" d="M443.4,248.6h-62.6c-2.3,2.9-6.3,5.7-9.8,6.9h72.4C442.9,253.2,442.9,250.9,443.4,248.6z"/>
			<path fill="#E1E1E1" d="M467.6,204.9c0.6,0,1.7,0,2.3,0h4v-98.2c0-2.3-1.7-3.4-2.9-3.4h-94.2c-1.7,0-2.9,1.7-2.9,3.4v35.6
				c2.3,0.6,4,1.7,6.3,2.9v-34.5h87.3L467.6,204.9L467.6,204.9z"/>
			<path fill="#E1E1E1" d="M442.9,233.1c0-1.7,0-3.4,0.6-5.2h-55.7c-0.6,2.3-1.1,4.6-1.7,6.9h56.3
				C442.9,234.2,442.9,233.6,442.9,233.1z"/>
			<path fill="#E1E1E1" d="M448.6,138.3h-50c-1.7,0-2.9-1.7-2.9-3.4s1.7-3.4,2.9-3.4h50c1.7,0,2.9,1.7,2.9,3.4
				C452.1,136.6,450.9,138.3,448.6,138.3z"/>
			<path fill="#E1E1E1" d="M448.6,159h-29.3c1.1,2.3,1.7,4.6,1.7,6.9h28.1c1.7,0,2.9-1.7,2.9-3.4C451.5,160.7,450.9,159,448.6,159z"
				/>
			<path fill="#E1E1E1" d="M448.6,186.5h-28.1v2.3c0,1.7,0,3.4-0.6,5.2h28.7c1.7,0,2.9-1.7,2.9-3.4
				C452.1,187.7,450.9,186.5,448.6,186.5z"/>
		</g>
		<g>
			<path fill="#48494E" d="M45.4,333c-1.1,0-2.3-0.6-2.9-1.1c-1.7-1.7-2.3-3.4-1.7-5.7l20.1-56.9H13.2c-2.9,0-5.2-2.3-5.2-5.2V60.7
				c0-2.9,2.3-5.2,5.2-5.2h295.2c2.9,0,5.2,2.3,5.2,5.2v203.9c0,2.9-2.3,5.2-5.2,5.2H143l-95.4,62C47.7,332.4,46.5,333,45.4,333z
				 M18.4,258.9h50.5c1.7,0,2.9,1.1,4,2.3c1.1,1.7,1.1,2.9,0.6,4.6l-17.8,49.4l83.3-55.7c1.1-0.6,2.3-1.1,2.9-1.1h161.4v-193H18.4
				V258.9z"/>
		</g>
		<polygon fill="#89786E" points="294.7,327.8 317.7,350.8 308.5,358.9 265.4,379.5 285.5,332.4 		"/>
		<polygon fill="#B4A808" points="299.3,323.2 321.1,349.1 387.7,279 364.2,258.9 		"/>
		<path fill="#56BDEA" d="M386.6,238.8l21.3,21.8l17.8-21.3c0,0,4-11.5-4-19.5s-23,2.9-23,2.9L386.6,238.8z"/>
		<polygon fill="#DBD7D6" points="384.3,243.4 369.9,257.8 389.5,278.4 404.4,262.9 		"/>
		<g>
			<path fill="#48494E" d="M262.5,386.4c-1.1,0-1.7-0.6-2.3-1.1c-1.1-1.1-1.1-2.3-0.6-4l24.7-48.3c0-0.6,0.6-0.6,0.6-1.1l96.5-96.5
				c1.7-1.7,3.4-1.7,4.6,0l23,23c0.6,0.6,1.1,1.7,1.1,2.3c0,1.1-0.6,1.7-1.1,2.3l-95.9,97.7c0,0-0.6,0.6-1.1,0.6l-48.3,24.7
				C263.1,386.4,263.1,386.4,262.5,386.4z M290.1,337L270,375.5l38.5-20.1l93.1-93.1L383.1,244L290.1,337z"/>
			<path fill="#48494E" d="M409.6,264.1l-5.2-4.6l14.4-14.4c6.9-6.9,8-16.7,2.9-21.8c-5.2-5.2-14.9-3.4-21.8,2.9l-14.4,14.4
				l-4.6-4.6l14.4-14.4c9.2-9.2,23.6-10.9,31-2.9c7.5,7.5,6.3,21.3-2.9,31L409.6,264.1z"/>
			
				<rect x="292.1" y="333.4" transform="matrix(0.7071 0.7071 -0.7071 0.7071 328.5602 -119.4228)" fill="#48494E" width="32.7" height="6.9"/>
			
				<rect x="361.4" y="264" transform="matrix(0.7072 0.707 -0.707 0.7072 299.6723 -188.8179)" fill="#48494E" width="32.7" height="6.9"/>
		</g>
		<g>
			<path fill="#E1E1E1" d="M508.4,347.4h-58c-6.3,0-11.5-5.2-11.5-11.5V213.5c0-6.3,5.2-11.5,11.5-11.5h57.4
				c6.3,0,11.5,5.2,11.5,11.5v122.4C519.3,341.6,514.1,347.4,508.4,347.4z M450.3,206.6c-3.4,0-6.9,2.9-6.9,6.9v122.4
				c0,3.4,2.9,6.9,6.9,6.9h57.4c3.4,0,6.9-2.9,6.9-6.9V213.5c0-3.4-2.9-6.9-6.9-6.9C507.8,206.6,450.3,206.6,450.3,206.6z"/>
			<path fill="#E1E1E1" d="M514.1,230.8h-70.7c-1.7,0-2.3-1.1-2.3-2.3c0-1.1,1.1-2.3,2.3-2.3h70.7c1.7,0,2.3,1.1,2.3,2.3
				C517,229.6,515.8,230.8,514.1,230.8z"/>
			<path fill="#E1E1E1" d="M478.5,218.7c-0.6,0-1.7,0-1.7-0.6c-0.6-0.6-0.6-1.1-0.6-1.7c0-0.6,0-1.1,0.6-1.7c1.1-1.1,2.3-1.1,3.4,0
				c0.6,0.6,0.6,1.1,0.6,1.7c0,0.6-0.6,1.1-0.6,1.7C479.6,218.7,479.1,218.7,478.5,218.7z"/>
			<path fill="#E1E1E1" d="M486.5,332.4h-14.4c-1.7,0-2.3-1.1-2.3-2.3s1.1-2.3,2.3-2.3h14.4c1.7,0,2.3,1.1,2.3,2.3
				C488.3,331.3,487.1,332.4,486.5,332.4z"/>
			<path fill="#E1E1E1" d="M514.1,322.7h-70.7c-1.7,0-2.3-1.1-2.3-2.3c0-1.1,1.1-2.3,2.3-2.3h70.7c1.7,0,2.3,1.1,2.3,2.3
				C517,322.1,515.8,322.7,514.1,322.7z"/>
		</g>
		<path fill="#48494E" d="M272.8,102.7c0,2.3-2.3,4-4,4H43.1c-2.3,0-4-2.3-4-4v-1.7c0-2.3,2.3-4,4-4h225.7c2.3,0,4,2.3,4,4V102.7z"
			/>
		<path fill="#48494E" d="M155.7,133.7c0,2.3-1.1,4-2.3,4h-112c-1.1,0-2.3-2.3-2.3-4V132c0-2.3,1.1-4,2.3-4h113.2
			c1.1,0,2.3,2.3,2.3,4L155.7,133.7L155.7,133.7z"/>
		<polygon fill="#B4A808" points="103.4,232.5 83.3,221.6 61.5,232.5 66.1,208.9 49.4,192.3 73,189.4 83.3,168.7 93.6,189.4 
			116.6,192.9 99.9,209.5 		"/>
		<polygon fill="#B4A808" points="185,232.5 164.3,221.6 143,232.5 147.6,208.9 131,192.3 154.5,189.4 164.9,168.7 175.2,189.4 
			198.2,192.9 181.5,209.5 		"/>
		<polygon fill="#B4A808" points="266.5,232.5 245.8,221.6 224.6,232.5 229.2,208.9 212.5,192.3 236.1,189.4 246.4,168.7 
			256.8,189.4 279.7,192.9 263.1,209.5 		"/>
		<path fill="#48494E" d="M326.3,65.9c-1.7,0-2.3,0.6-2.3-2.3l0,0c0-2.9,1.1-2.3,2.3-2.3h34.5c1.7,0,2.3-0.6,2.3,2.3l0,0
			c0,2.9-1.1,2.3-2.3,2.3H326.3z"/>
		<path fill="#48494E" d="M303.3,32.6c0,1.1,0,2.3-2.3,2.3l0,0c-2.9,0-2.3-1.1-2.3-2.3l1.7-29.3c0-1.1,0-2.3,2.3-2.3l0,0
			c2.9,0,2.3,1.1,2.3,2.3L303.3,32.6z"/>
		<path fill="#48494E" d="M324.5,44.1c-1.1,1.1-1.7,2.3-3.4,0l0,0c-2.3-2.3-1.1-2.3,0-3.4l23-23.6c1.1-1.1,1.7-2.3,3.4,0l0,0
			c2.3,2.3,1.1,2.3,0,3.4L324.5,44.1z"/>
	</g>
</g>
</svg>
