<?xml version="1.0" encoding="utf-8"?>
<!-- Generator: Adobe Illustrator 17.1.0, SVG Export Plug-In . SVG Version: 6.00 Build 0)  -->
<!DOCTYPE svg PUBLIC "-//W3C//DTD SVG 1.1//EN" "http://www.w3.org/Graphics/SVG/1.1/DTD/svg11.dtd">
<svg version="1.1" id="Layer_1" xmlns="http://www.w3.org/2000/svg" xmlns:xlink="http://www.w3.org/1999/xlink" x="0px" y="0px"
	 viewBox="0 0 578 360" enable-background="new 0 0 578 360" xml:space="preserve">
<image display="none" overflow="visible" width="2560" height="1600" xlink:href="../../Screen Shot 2016-09-05 at 11.22.49 AM.png"  transform="matrix(0.5 0 0 0.5 -232 -199.5)">
</image>
<g id="icons_2_">
	<ellipse fill="#EFEEF1" cx="459.2" cy="126" rx="14.8" ry="14.5"/>
	<ellipse fill="#EFEEF1" cx="57.2" cy="169" rx="14.8" ry="14.5"/>
	<g>
		<g>
			<path fill="#C5BEBD" d="M72.2,200.6c-7,0-13.1-4.2-15.7-10.7c-0.2-0.5,0-1.1,0.6-1.3c0.5-0.2,1.1,0,1.3,0.6
				c2.3,5.7,7.8,9.4,13.9,9.4c8.3,0,15-6.7,15-15c0-6.1-3.7-11.6-9.4-13.9c-0.5-0.2-0.8-0.8-0.6-1.3c0.2-0.5,0.8-0.8,1.3-0.6
				c6.5,2.6,10.7,8.8,10.7,15.7C89.2,193,81.6,200.6,72.2,200.6z"/>
			<path fill="#C5BEBD" d="M72.2,196.6c-4.8,0-9.1-2.6-11.4-6.8c-0.3-0.5-0.1-1.1,0.4-1.4c0.5-0.3,1.1-0.1,1.4,0.4
				c1.9,3.6,5.6,5.8,9.7,5.8c6.1,0,11-4.9,11-11c0-4-2.2-7.7-5.8-9.7c-0.5-0.3-0.7-0.9-0.4-1.4c0.3-0.5,0.9-0.7,1.4-0.4
				c4.2,2.3,6.8,6.7,6.8,11.4C85.2,190.8,79.4,196.6,72.2,196.6z"/>
		</g>
		<path fill="#C5BEBD" d="M57.2,184.6c-8.8,0-16-7.2-16-16c0-8.8,7.2-16,16-16c8.8,0,16,7.2,16,16C73.2,177.5,66.1,184.6,57.2,184.6
			z M57.2,154.6c-7.7,0-14,6.3-14,14c0,7.7,6.3,14,14,14s14-6.3,14-14C71.2,160.9,64.9,154.6,57.2,154.6z"/>
		<path fill="#C5BEBD" d="M57.2,179.6c-6.1,0-11-4.9-11-11c0-6.1,4.9-11,11-11s11,4.9,11,11C68.2,174.7,63.3,179.6,57.2,179.6z
			 M57.2,159.6c-5,0-9,4-9,9c0,5,4,9,9,9s9-4,9-9C66.2,163.7,62.2,159.6,57.2,159.6z"/>
		<g>
			<path fill="#C5BEBD" d="M57.3,174.2c-2.1,0-3.5-1.3-3.5-3.1c0-0.6,0.4-1,1-1c0.6,0,1,0.4,1,1c0,0.9,0.9,1.1,1.5,1.1
				c0.6,0,1.5-0.1,1.5-1.1c0-0.6-0.1-0.7-1.5-1.4l-0.8-0.4c-1.4-0.7-2.6-1.3-2.6-3.2c0-1.8,1.4-3.1,3.5-3.1c2,0,3.5,1.3,3.5,3.1
				c0,0.6-0.4,1-1,1c-0.6,0-1-0.4-1-1c0-1-0.9-1.1-1.5-1.1c-0.4,0-1.5,0.1-1.5,1.1c0,0.6,0.1,0.7,1.5,1.4l0.8,0.4
				c1.4,0.7,2.7,1.3,2.7,3.2C60.8,172.9,59.4,174.2,57.3,174.2z"/>
			<path fill="#C5BEBD" d="M57,164.6c-0.6,0-1-0.4-1-1v-1c0-0.6,0.4-1,1-1s1,0.4,1,1v1C58,164.2,57.6,164.6,57,164.6z"/>
			<path fill="#C5BEBD" d="M57,175.6c-0.6,0-1-0.4-1-1v-1.4c0-0.6,0.4-1,1-1s1,0.4,1,1v1.4C58,175.2,57.6,175.6,57,175.6z"/>
		</g>
	</g>
	<path fill="#EFEEF1" d="M145.1,118.1v-8l-6.1-2l-25.6-3.6l-5.4,0.6l-2.5,3.4L95.1,132l0.1,4l2.9,3.1l31.1,13.6h4l3.8-2.2l2.1-4.5
		l9.1-20.9c0,0-0.5-4-0.9-4.4S145.1,118.1,145.1,118.1z"/>
	<g>
		<g>
			<path fill="#C5BEBD" d="M474.2,157.6c-7,0-13.1-4.2-15.7-10.7c-0.2-0.5,0-1.1,0.6-1.3c0.5-0.2,1.1,0,1.3,0.6
				c2.3,5.7,7.8,9.4,13.9,9.4c8.3,0,15-6.7,15-15c0-6.1-3.7-11.6-9.4-13.9c-0.5-0.2-0.8-0.8-0.6-1.3c0.2-0.5,0.8-0.8,1.3-0.6
				c6.5,2.6,10.7,8.8,10.7,15.7C491.2,150,483.6,157.6,474.2,157.6z"/>
			<path fill="#C5BEBD" d="M474.2,153.6c-4.8,0-9.1-2.6-11.4-6.8c-0.3-0.5-0.1-1.1,0.4-1.4c0.5-0.3,1.1-0.1,1.4,0.4
				c1.9,3.6,5.6,5.8,9.7,5.8c6.1,0,11-4.9,11-11c0-4-2.2-7.7-5.8-9.7c-0.5-0.3-0.7-0.9-0.4-1.4c0.3-0.5,0.9-0.7,1.4-0.4
				c4.2,2.3,6.8,6.7,6.8,11.4C487.2,147.8,481.4,153.6,474.2,153.6z"/>
		</g>
		<path fill="#C5BEBD" d="M459.2,141.6c-8.8,0-16-7.2-16-16c0-8.8,7.2-16,16-16c8.8,0,16,7.2,16,16
			C475.2,134.5,468.1,141.6,459.2,141.6z M459.2,111.6c-7.7,0-14,6.3-14,14c0,7.7,6.3,14,14,14c7.7,0,14-6.3,14-14
			C473.2,117.9,466.9,111.6,459.2,111.6z"/>
		<path fill="#C5BEBD" d="M459.2,136.6c-6.1,0-11-4.9-11-11c0-6.1,4.9-11,11-11c6.1,0,11,4.9,11,11
			C470.2,131.7,465.3,136.6,459.2,136.6z M459.2,116.6c-5,0-9,4-9,9c0,5,4,9,9,9s9-4,9-9C468.2,120.7,464.2,116.6,459.2,116.6z"/>
		<g>
			<path fill="#C5BEBD" d="M459.3,131.2c-2.1,0-3.5-1.3-3.5-3.1c0-0.6,0.4-1,1-1c0.6,0,1,0.4,1,1c0,0.9,0.9,1.1,1.5,1.1
				c0.6,0,1.5-0.1,1.5-1.1c0-0.6-0.1-0.7-1.5-1.4l-0.8-0.4c-1.4-0.7-2.6-1.3-2.6-3.2c0-1.8,1.4-3.1,3.5-3.1c2,0,3.5,1.3,3.5,3.1
				c0,0.6-0.4,1-1,1c-0.6,0-1-0.4-1-1c0-1-0.9-1.1-1.5-1.1c-0.4,0-1.5,0.1-1.5,1.1c0,0.6,0.1,0.7,1.5,1.4l0.8,0.4
				c1.4,0.7,2.7,1.3,2.7,3.2C462.8,129.9,461.4,131.2,459.3,131.2z"/>
			<path fill="#C5BEBD" d="M459,121.6c-0.6,0-1-0.4-1-1v-1c0-0.6,0.4-1,1-1s1,0.4,1,1v1C460,121.2,459.6,121.6,459,121.6z"/>
			<path fill="#C5BEBD" d="M459,132.6c-0.6,0-1-0.4-1-1v-1.4c0-0.6,0.4-1,1-1s1,0.4,1,1v1.4C460,132.2,459.6,132.6,459,132.6z"/>
		</g>
	</g>
	<g>
		<path fill="#C5BEBD" d="M138.9,149.2c-1.7,4.1-6.4,5.9-10.5,4.2L99,140.8c-4.1-1.7-5.9-6.4-4.2-10.5l9.5-22.1
			c1.7-4.1,6.4-5.9,10.5-4.2l29.4,12.6c4.1,1.7,5.9,6.4,4.2,10.5L138.9,149.2z M146.5,126.4c1.3-3-0.1-6.6-3.1-7.9L114,105.9
			c-3-1.3-6.6,0.1-7.9,3.1l-9.5,22.1c-1.3,3,0.1,6.6,3.1,7.9l29.4,12.6c3,1.3,6.6-0.1,7.9-3.1L146.5,126.4z"/>
		<path fill="#C5BEBD" d="M137.8,146.6l-5.3-2.3c-4.6-2-6.7-7.3-4.7-11.8c2-4.6,7.3-6.7,11.8-4.7l5.3,2.3c0.5,0.2,0.7,0.8,0.5,1.3
			c-0.2,0.5-0.8,0.7-1.3,0.5l-5.3-2.3c-3.5-1.5-7.7,0.1-9.2,3.7c-1.5,3.5,0.1,7.7,3.7,9.2l5.3,2.3c0.5,0.2,0.7,0.8,0.5,1.3
			C138.9,146.6,138.3,146.8,137.8,146.6z"/>
		<path fill="#C5BEBD" d="M134.1,138.1c-1.5-0.7-2.2-2.4-1.6-3.9c0.7-1.5,2.4-2.2,3.9-1.6s2.2,2.4,1.6,3.9
			C137.4,138,135.6,138.7,134.1,138.1z M135.7,134.4c-0.5-0.2-1.1,0-1.3,0.5c-0.2,0.5,0,1.1,0.5,1.3c0.5,0.2,1.1,0,1.3-0.5
			S136.2,134.6,135.7,134.4z"/>
		
			<rect x="108.1" y="108.7" transform="matrix(0.9189 0.3945 -0.3945 0.9189 52.1954 -34.5593)" fill="#C5BEBD" width="4" height="2"/>
		
			<rect x="113.7" y="111" transform="matrix(0.9189 0.3945 -0.3945 0.9189 53.5765 -36.5424)" fill="#C5BEBD" width="4" height="2"/>
		
			<rect x="119.2" y="113.4" transform="matrix(0.9189 0.3945 -0.3945 0.9189 54.9576 -38.5256)" fill="#C5BEBD" width="4" height="2"/>
		
			<rect x="124.7" y="115.8" transform="matrix(0.9189 0.3945 -0.3945 0.9189 56.3386 -40.5087)" fill="#C5BEBD" width="4" height="2"/>
		
			<rect x="130.2" y="118.1" transform="matrix(0.9189 0.3945 -0.3945 0.9189 57.7197 -42.4918)" fill="#C5BEBD" width="4" height="2"/>
		
			<rect x="135.7" y="120.5" transform="matrix(0.9189 0.3945 -0.3945 0.9189 59.1008 -44.4749)" fill="#C5BEBD" width="4" height="2"/>
		
			<rect x="141.2" y="122.9" transform="matrix(0.9189 0.3945 -0.3945 0.9189 60.4819 -46.458)" fill="#C5BEBD" width="4" height="2"/>
		
			<rect x="97.9" y="132.5" transform="matrix(0.9189 0.3945 -0.3945 0.9189 60.7889 -28.5747)" fill="#C5BEBD" width="4" height="2"/>
		
			<rect x="103.4" y="134.9" transform="matrix(0.9189 0.3945 -0.3945 0.9189 62.17 -30.5578)" fill="#C5BEBD" width="4" height="2"/>
		
			<rect x="108.9" y="137.3" transform="matrix(0.9189 0.3945 -0.3945 0.9189 63.5511 -32.5409)" fill="#C5BEBD" width="4" height="2"/>
		
			<rect x="114.4" y="139.6" transform="matrix(0.9189 0.3945 -0.3945 0.9189 64.9321 -34.524)" fill="#C5BEBD" width="4" height="2"/>
		
			<rect x="119.9" y="142" transform="matrix(0.9189 0.3945 -0.3945 0.9189 66.3132 -36.5071)" fill="#C5BEBD" width="4" height="2"/>
		
			<rect x="125.5" y="144.4" transform="matrix(0.9189 0.3945 -0.3945 0.9189 67.6943 -38.4902)" fill="#C5BEBD" width="4" height="2"/>
		
			<rect x="131" y="146.7" transform="matrix(0.9189 0.3945 -0.3945 0.9189 69.0753 -40.4734)" fill="#C5BEBD" width="4" height="2"/>
		<path fill="#C5BEBD" d="M112.6,105.4l0.3-2l29.5,4.6c1.3,0.2,2.5,1,3.2,2.1c0.7,1.1,0.9,2.5,0.5,3.8l-1.1,3.7l-1.9-0.6l1.1-3.7
			c0.2-0.7,0.1-1.5-0.3-2.1c-0.4-0.6-1.1-1.1-1.8-1.2L112.6,105.4z"/>
	</g>
	<path fill="#EFEEF1" d="M417.1,168.1v-8l-6.1-2l-25.6-3.6l-5.4,0.6l-2.5,3.4L367.1,182l0.1,4l2.9,3.1l31.1,13.6h4l3.8-2.2l2.1-4.5
		l9.1-20.9c0,0-0.5-4-0.9-4.4S417.1,168.1,417.1,168.1z"/>
	<g>
		<path fill="#C5BEBD" d="M410.9,199.2c-1.7,4.1-6.4,5.9-10.5,4.2L371,190.8c-4.1-1.7-5.9-6.4-4.2-10.5l9.5-22.1
			c1.7-4.1,6.4-5.9,10.5-4.2l29.4,12.6c4.1,1.7,5.9,6.4,4.2,10.5L410.9,199.2z M418.5,176.4c1.3-3-0.1-6.6-3.1-7.9L386,155.9
			c-3-1.3-6.6,0.1-7.9,3.1l-9.5,22.1c-1.3,3,0.1,6.6,3.1,7.9l29.4,12.6c3,1.3,6.6-0.1,7.9-3.1L418.5,176.4z"/>
		<path fill="#C5BEBD" d="M409.8,196.6l-5.3-2.3c-4.6-2-6.7-7.3-4.7-11.8s7.3-6.7,11.8-4.7l5.3,2.3c0.5,0.2,0.7,0.8,0.5,1.3
			c-0.2,0.5-0.8,0.7-1.3,0.5l-5.3-2.3c-3.5-1.5-7.7,0.1-9.2,3.7c-1.5,3.5,0.1,7.7,3.7,9.2l5.3,2.3c0.5,0.2,0.7,0.8,0.5,1.3
			C410.9,196.6,410.3,196.8,409.8,196.6z"/>
		<path fill="#C5BEBD" d="M406.1,188.1c-1.5-0.7-2.2-2.4-1.6-3.9c0.7-1.5,2.4-2.2,3.9-1.6c1.5,0.7,2.2,2.4,1.6,3.9
			C409.4,188,407.6,188.7,406.1,188.1z M407.7,184.4c-0.5-0.2-1.1,0-1.3,0.5c-0.2,0.5,0,1.1,0.5,1.3c0.5,0.2,1.1,0,1.3-0.5
			S408.2,184.6,407.7,184.4z"/>
		
			<rect x="380.1" y="158.7" transform="matrix(0.9189 0.3945 -0.3945 0.9189 93.984 -137.813)" fill="#C5BEBD" width="4" height="2"/>
		
			<rect x="385.7" y="161" transform="matrix(0.9189 0.3945 -0.3945 0.9189 95.365 -139.7961)" fill="#C5BEBD" width="4" height="2"/>
		
			<rect x="391.2" y="163.4" transform="matrix(0.9189 0.3945 -0.3945 0.9189 96.7461 -141.7792)" fill="#C5BEBD" width="4" height="2"/>
		
			<rect x="396.7" y="165.8" transform="matrix(0.9189 0.3945 -0.3945 0.9189 98.1272 -143.7623)" fill="#C5BEBD" width="4" height="2"/>
		
			<rect x="402.2" y="168.1" transform="matrix(0.9189 0.3945 -0.3945 0.9189 99.5083 -145.7454)" fill="#C5BEBD" width="4" height="2"/>
		
			<rect x="407.7" y="170.5" transform="matrix(0.9189 0.3945 -0.3945 0.9189 100.8893 -147.7285)" fill="#C5BEBD" width="4" height="2"/>
		
			<rect x="413.2" y="172.9" transform="matrix(0.9189 0.3945 -0.3945 0.9189 102.2704 -149.7117)" fill="#C5BEBD" width="4" height="2"/>
		
			<rect x="369.9" y="182.5" transform="matrix(0.9189 0.3945 -0.3945 0.9189 102.5774 -131.8283)" fill="#C5BEBD" width="4" height="2"/>
		
			<rect x="375.4" y="184.9" transform="matrix(0.9189 0.3945 -0.3945 0.9189 103.9585 -133.8114)" fill="#C5BEBD" width="4" height="2"/>
		
			<rect x="380.9" y="187.3" transform="matrix(0.9189 0.3945 -0.3945 0.9189 105.3396 -135.7946)" fill="#C5BEBD" width="4" height="2"/>
		
			<rect x="386.4" y="189.6" transform="matrix(0.9189 0.3945 -0.3945 0.9189 106.7207 -137.7777)" fill="#C5BEBD" width="4" height="2"/>
		
			<rect x="391.9" y="192" transform="matrix(0.9189 0.3945 -0.3945 0.9189 108.1017 -139.7608)" fill="#C5BEBD" width="4" height="2"/>
		
			<rect x="397.5" y="194.4" transform="matrix(0.9189 0.3945 -0.3945 0.9189 109.4828 -141.7439)" fill="#C5BEBD" width="4" height="2"/>
		
			<rect x="403" y="196.7" transform="matrix(0.9189 0.3945 -0.3945 0.9189 110.8639 -143.727)" fill="#C5BEBD" width="4" height="2"/>
		<path fill="#C5BEBD" d="M384.6,155.4l0.3-2l29.5,4.6c1.3,0.2,2.5,1,3.2,2.1c0.7,1.1,0.9,2.5,0.5,3.8l-1.1,3.7l-1.9-0.6l1.1-3.7
			c0.2-0.7,0.1-1.5-0.3-2.1c-0.4-0.6-1.1-1.1-1.8-1.2L384.6,155.4z"/>
	</g>
	<g>
		<polyline fill="#EFEEF1" points="193.7,186.5 212,192.2 236.5,200 228.2,221.3 208.2,216 194.2,212.7 184.3,207.5 193.7,186.5 		
			"/>
		<path fill="#C5BEBD" d="M194.2,212.7c-3.2-1.1-6.3-2.4-9.4-3.9c-0.5-0.2-0.7-0.7-0.5-1.2l7.9-22.7c0.1-0.3,0.3-0.5,0.6-0.6
			c0.3-0.1,0.6-0.1,0.8,0c3,1.5,6,2.7,9.1,3.8c4.3,1.5,8.4,2.5,12.4,3.5c4,1,8.2,2,12.6,3.6c3.2,1.1,6.3,2.4,9.4,3.9
			c0.5,0.2,0.7,0.7,0.5,1.2l-7.9,22.7c-0.1,0.3-0.3,0.5-0.6,0.6c-0.3,0.1-0.6,0.1-0.8,0c-3-1.5-6-2.7-9.1-3.8
			c-4.3-1.5-8.4-2.5-12.4-3.5C202.8,215.2,198.6,214.2,194.2,212.7z M186.5,207.3c2.7,1.3,5.4,2.4,8.3,3.5c4.3,1.5,8.4,2.5,12.4,3.5
			c4,1,8.2,2,12.6,3.6c2.9,1,5.6,2.1,8.3,3.4l7.2-20.8c-2.7-1.3-5.4-2.5-8.3-3.5c-4.3-1.5-8.4-2.5-12.4-3.5c-4-1-8.2-2-12.6-3.6
			c-2.9-1-5.6-2.1-8.3-3.4L186.5,207.3z"/>
		<path fill="#C5BEBD" d="M233,222.8c-0.5-0.2-0.8-0.8-0.6-1.3l8-23c-7.2-3.6-14-5.1-20.7-6.6c-6.8-1.5-13.9-3.1-22.3-7.3
			c-0.5-0.2-0.7-0.8-0.5-1.3c0.2-0.5,0.8-0.7,1.3-0.5c8.2,4.1,15.1,5.6,21.8,7.1c6.7,1.5,13.7,3.1,21.9,7.2c0.5,0.2,0.7,0.7,0.5,1.2
			l-8.3,23.8C234.1,222.7,233.5,222.9,233,222.8z"/>
		<path fill="#C5BEBD" d="M238.1,220.3c-0.5-0.2-0.8-0.8-0.6-1.3l8-23c-7.2-3.6-14-5.1-20.7-6.6c-6.8-1.5-13.9-3.1-22.3-7.3
			c-0.5-0.2-0.7-0.8-0.5-1.3c0.2-0.5,0.8-0.7,1.3-0.5c8.2,4.1,15.1,5.6,21.8,7.1c6.7,1.5,13.7,3.1,21.9,7.2c0.5,0.2,0.7,0.7,0.5,1.2
			l-8.3,23.8C239.2,220.2,238.6,220.5,238.1,220.3z"/>
		<path fill="#C5BEBD" d="M195.8,209c-2-0.7-3.8-1.4-5.8-2.3c-0.5-0.2-0.7-0.8-0.5-1.3c0.2-0.5,0.8-0.7,1.3-0.5
			c1.9,0.8,3.7,1.6,5.6,2.2c0.5,0.2,0.8,0.8,0.6,1.3C196.9,208.9,196.3,209.2,195.8,209z"/>
		<path fill="#C5BEBD" d="M231.6,203.1C231.6,203.1,231.6,203.1,231.6,203.1c-1.9-0.8-3.8-1.6-5.7-2.2c-0.5-0.2-0.8-0.8-0.6-1.3
			c0.2-0.5,0.8-0.8,1.3-0.6c2,0.7,3.9,1.4,5.8,2.3c0.5,0.2,0.7,0.8,0.5,1.3C232.7,203.1,232.1,203.3,231.6,203.1z"/>
		<path fill="#C5BEBD" d="M208.9,207.9c-1.8-0.6-2.7-2.2-2.1-3.8c0.2-0.5,0.8-0.8,1.3-0.6c0.5,0.2,0.8,0.8,0.6,1.3
			c-0.3,0.7,0.5,1.1,0.9,1.3c0.5,0.2,1.3,0.3,1.5-0.4c0.2-0.4,0.2-0.5-0.9-1.6l-0.6-0.6c-1-1.1-1.9-2-1.4-3.6
			c0.6-1.6,2.2-2.3,4.1-1.7c1.8,0.6,2.7,2.2,2.1,3.8c-0.2,0.5-0.8,0.8-1.3,0.6c-0.5-0.2-0.8-0.8-0.6-1.3c0.3-0.7-0.3-1.1-0.9-1.3
			c-0.5-0.2-1.3-0.3-1.5,0.5c-0.2,0.4-0.2,0.5,0.9,1.6l0.6,0.6c1,1.1,1.9,2,1.4,3.7C212.4,207.8,210.7,208.5,208.9,207.9z"/>
		<path fill="#C5BEBD" d="M211.5,199.4c-0.5-0.2-0.8-0.8-0.6-1.3l0.3-0.9c0.2-0.5,0.8-0.8,1.3-0.6c0.5,0.2,0.8,0.8,0.6,1.3l-0.3,0.9
			C212.6,199.3,212,199.6,211.5,199.4z"/>
		<path fill="#C5BEBD" d="M208,209.4c-0.5-0.2-0.8-0.8-0.6-1.3l0.5-1.5c0.2-0.5,0.8-0.8,1.3-0.6c0.5,0.2,0.8,0.8,0.6,1.3l-0.5,1.5
			C209.1,209.3,208.6,209.6,208,209.4z"/>
	</g>
	<g>
		<polyline fill="#EFEEF1" points="447.7,249.5 466,255.2 490.5,263 482.2,284.3 462.2,279 448.2,275.7 438.3,270.5 447.7,249.5 		
			"/>
		<path fill="#C5BEBD" d="M448.2,275.7c-3.2-1.1-6.3-2.4-9.4-3.9c-0.5-0.2-0.7-0.7-0.5-1.2l7.9-22.7c0.1-0.3,0.3-0.5,0.6-0.6
			c0.3-0.1,0.6-0.1,0.8,0c3,1.5,6,2.7,9.1,3.8c4.3,1.5,8.4,2.5,12.4,3.5c4,1,8.2,2,12.6,3.6c3.2,1.1,6.3,2.4,9.4,3.9
			c0.5,0.2,0.7,0.7,0.5,1.2l-7.9,22.7c-0.1,0.3-0.3,0.5-0.6,0.6c-0.3,0.1-0.6,0.1-0.8,0c-3-1.5-6-2.7-9.1-3.8
			c-4.3-1.5-8.4-2.5-12.4-3.5C456.8,278.2,452.6,277.2,448.2,275.7z M440.5,270.3c2.7,1.3,5.4,2.4,8.3,3.5c4.3,1.5,8.4,2.5,12.4,3.5
			c4,1,8.2,2,12.6,3.6c2.9,1,5.6,2.1,8.3,3.4l7.2-20.8c-2.7-1.3-5.4-2.5-8.3-3.5c-4.3-1.5-8.4-2.5-12.4-3.5c-4-1-8.2-2-12.6-3.6
			c-2.9-1-5.6-2.1-8.3-3.4L440.5,270.3z"/>
		<path fill="#C5BEBD" d="M487,285.8c-0.5-0.2-0.8-0.8-0.6-1.3l8-23c-7.2-3.6-14-5.1-20.7-6.6c-6.8-1.5-13.9-3.1-22.3-7.3
			c-0.5-0.2-0.7-0.8-0.5-1.3c0.2-0.5,0.8-0.7,1.3-0.5c8.2,4.1,15.1,5.6,21.8,7.1c6.7,1.5,13.7,3.1,21.9,7.2c0.5,0.2,0.7,0.7,0.5,1.2
			l-8.3,23.8C488.1,285.7,487.5,285.9,487,285.8z"/>
		<path fill="#C5BEBD" d="M492.1,283.3c-0.5-0.2-0.8-0.8-0.6-1.3l8-23c-7.2-3.6-14-5.1-20.7-6.6c-6.8-1.5-13.9-3.1-22.3-7.3
			c-0.5-0.2-0.7-0.8-0.5-1.3c0.2-0.5,0.8-0.7,1.3-0.5c8.2,4.1,15.1,5.6,21.8,7.1c6.7,1.5,13.7,3.1,21.9,7.2c0.5,0.2,0.7,0.7,0.5,1.2
			l-8.3,23.8C493.2,283.2,492.6,283.5,492.1,283.3z"/>
		<path fill="#C5BEBD" d="M449.8,272c-2-0.7-3.8-1.4-5.8-2.3c-0.5-0.2-0.7-0.8-0.5-1.3c0.2-0.5,0.8-0.7,1.3-0.5
			c1.9,0.8,3.7,1.6,5.6,2.2c0.5,0.2,0.8,0.8,0.6,1.3C450.9,271.9,450.3,272.2,449.8,272z"/>
		<path fill="#C5BEBD" d="M485.6,266.1C485.6,266.1,485.6,266.1,485.6,266.1c-1.9-0.8-3.8-1.6-5.7-2.2c-0.5-0.2-0.8-0.8-0.6-1.3
			c0.2-0.5,0.8-0.8,1.3-0.6c2,0.7,3.9,1.4,5.8,2.3c0.5,0.2,0.7,0.8,0.5,1.3C486.7,266.1,486.1,266.3,485.6,266.1z"/>
		<path fill="#C5BEBD" d="M462.9,270.9c-1.8-0.6-2.7-2.2-2.1-3.8c0.2-0.5,0.8-0.8,1.3-0.6c0.5,0.2,0.8,0.8,0.6,1.3
			c-0.3,0.7,0.5,1.1,0.9,1.3c0.5,0.2,1.3,0.3,1.5-0.4c0.2-0.4,0.2-0.5-0.9-1.6l-0.6-0.6c-1-1.1-1.9-2-1.4-3.6
			c0.6-1.6,2.2-2.3,4.1-1.7c1.8,0.6,2.7,2.2,2.1,3.8c-0.2,0.5-0.8,0.8-1.3,0.6c-0.5-0.2-0.8-0.8-0.6-1.3c0.3-0.7-0.3-1.1-0.9-1.3
			c-0.5-0.2-1.3-0.3-1.5,0.5c-0.2,0.4-0.2,0.5,0.9,1.6l0.6,0.6c1,1.1,1.9,2,1.4,3.7C466.4,270.8,464.7,271.5,462.9,270.9z"/>
		<path fill="#C5BEBD" d="M465.5,262.4c-0.5-0.2-0.8-0.8-0.6-1.3l0.3-0.9c0.2-0.5,0.8-0.8,1.3-0.6c0.5,0.2,0.8,0.8,0.6,1.3l-0.3,0.9
			C466.6,262.3,466,262.6,465.5,262.4z"/>
		<path fill="#C5BEBD" d="M462,272.4c-0.5-0.2-0.8-0.8-0.6-1.3l0.5-1.5c0.2-0.5,0.8-0.8,1.3-0.6s0.8,0.8,0.6,1.3l-0.5,1.5
			C463.1,272.3,462.6,272.6,462,272.4z"/>
	</g>
	<g>
		<path fill="#CAC4C3" d="M138.2,206.2c-6-3.8-7.9-9.5-4.7-14.6c0.3-0.5,1-0.7,1.5-0.4c0.5,0.3,0.7,1,0.4,1.5
			c-3,4.8,0.1,9.1,3.9,11.5c3.9,2.4,9.1,3.3,12.1-1.5c2.5-4,1.1-6.3-2.4-11.8l-2-3.2c-3.5-5.6-5.6-9-2.4-14.2
			c3.2-5.1,9.3-6,15.2-2.3c6,3.7,7.7,9.5,4.5,14.6c-0.3,0.5-1,0.7-1.5,0.4c-0.5-0.3-0.7-1-0.4-1.5c3-4.9,0-9.1-3.8-11.5
			c-3.7-2.3-9.1-3.3-12.2,1.6c-2.5,4-1.1,6.3,2.4,11.8l2,3.2c3.5,5.6,5.6,9,2.4,14.2C150.2,209.1,144.2,209.9,138.2,206.2z"/>
		<path fill="#CAC4C3" d="M158.7,172.7c-0.5-0.3-0.7-1-0.4-1.5l2.4-3.8c0.3-0.5,1-0.7,1.5-0.4c0.5,0.3,0.7,1,0.4,1.5l-2.4,3.8
			C159.9,172.9,159.3,173.1,158.7,172.7z"/>
		<path fill="#CAC4C3" d="M134.9,210.8c-0.5-0.3-0.7-1-0.4-1.5l2.4-3.8c0.3-0.5,1-0.7,1.5-0.4s0.7,1,0.4,1.5l-2.4,3.8
			C136.1,211,135.4,211.1,134.9,210.8z"/>
	</g>
	<g>
		<path fill="#CAC4C3" d="M398.9,260.3c-5.7-4.2-7.1-10.1-3.5-15c0.4-0.5,1.1-0.6,1.6-0.2c0.5,0.4,0.6,1.1,0.2,1.6
			c-3.4,4.6-0.6,9.1,3,11.8c3.7,2.7,8.8,4,12.2-0.6c2.8-3.8,1.5-6.2-1.5-12l-1.7-3.3c-3-5.9-4.9-9.4-1.3-14.3
			c3.6-4.8,9.7-5.3,15.4-1.1c5.7,4.2,7,10,3.3,14.9c-0.4,0.5-1.1,0.6-1.6,0.2c-0.5-0.4-0.6-1.1-0.2-1.6c3.4-4.6,0.8-9.1-2.9-11.8
			c-3.5-2.6-8.8-4-12.2,0.6c-2.8,3.8-1.5,6.2,1.5,12l1.7,3.3c3,5.9,4.9,9.5,1.3,14.3C410.6,264.1,404.6,264.5,398.9,260.3z"/>
		<path fill="#CAC4C3" d="M422,228.5c-0.5-0.4-0.6-1.1-0.2-1.6l2.7-3.6c0.4-0.5,1.1-0.6,1.6-0.2c0.5,0.4,0.6,1.1,0.2,1.6l-2.7,3.6
			C423.2,228.8,422.5,228.9,422,228.5z"/>
		<path fill="#CAC4C3" d="M395.3,264.7c-0.5-0.4-0.6-1.1-0.2-1.6l2.7-3.6c0.4-0.5,1.1-0.6,1.6-0.2c0.5,0.4,0.6,1.1,0.2,1.6l-2.7,3.6
			C396.5,264.9,395.8,265,395.3,264.7z"/>
	</g>
	<g>
		<path fill="#CAC4C3" d="M536.2,168.2c-6-3.8-7.9-9.5-4.7-14.6c0.3-0.5,1-0.7,1.5-0.4c0.5,0.3,0.7,1,0.4,1.5
			c-3,4.8,0.1,9.1,3.9,11.5c3.9,2.4,9.1,3.3,12.1-1.5c2.5-4,1.1-6.3-2.4-11.8l-2-3.2c-3.5-5.6-5.6-9-2.4-14.2
			c3.2-5.1,9.3-6,15.2-2.3c6,3.7,7.7,9.5,4.5,14.6c-0.3,0.5-1,0.7-1.5,0.4c-0.5-0.3-0.7-1-0.4-1.5c3-4.9,0-9.1-3.8-11.5
			c-3.7-2.3-9.1-3.3-12.2,1.6c-2.5,4-1.1,6.3,2.4,11.8l2,3.2c3.5,5.6,5.6,9,2.4,14.2C548.2,171.1,542.2,171.9,536.2,168.2z"/>
		<path fill="#CAC4C3" d="M556.7,134.7c-0.5-0.3-0.7-1-0.4-1.5l2.4-3.8c0.3-0.5,1-0.7,1.5-0.4c0.5,0.3,0.7,1,0.4,1.5l-2.4,3.8
			C557.9,134.9,557.3,135.1,556.7,134.7z"/>
		<path fill="#CAC4C3" d="M532.9,172.8c-0.5-0.3-0.7-1-0.4-1.5l2.4-3.8c0.3-0.5,1-0.7,1.5-0.4s0.7,1,0.4,1.5l-2.4,3.8
			C534.1,173,533.4,173.1,532.9,172.8z"/>
	</g>
	<g>
		<polygon fill="#EFEEF1" points="11.2,237.9 25.6,251.2 52.3,226.6 51.6,217.3 49.9,214.9 46.2,212.6 37.2,213.3 		"/>
		<path fill="#C5BEBD" d="M25.5,252.2c-0.2,0-0.5-0.1-0.7-0.3l-14.7-13.5c-0.2-0.2-0.3-0.4-0.3-0.6c0-0.2,0.1-0.5,0.3-0.6l26.7-24.6
			c0.2-0.2,0.4-0.3,0.7-0.3l8.7,0.3h0c3.6,0,6.6,2.7,6.6,6.1l0.3,8c0,0.2-0.1,0.5-0.3,0.6l-26.7,24.6
			C26,252.1,25.7,252.2,25.5,252.2z M12.1,237.8l13.4,12.3l25.8-23.7l-0.3-7.6c0-2.4-2.1-4.4-4.7-4.4l-8.3-0.3L12.1,237.8z"/>
		<path fill="#C5BEBD" d="M44.9,224.3c-1.3,0-2.4-0.5-3.3-1.3c-1.8-1.7-1.8-4.5,0-6.1c0.9-0.8,2.1-1.3,3.3-1.3
			c1.3,0,2.4,0.5,3.3,1.3c1.8,1.7,1.8,4.5,0,6.1C47.3,223.8,46.1,224.3,44.9,224.3z M44.9,217.3c-0.8,0-1.5,0.3-2,0.8
			c-1.1,1-1.1,2.7,0,3.7c1.1,1,2.9,1,4,0c1.1-1,1.1-2.7,0-3.7C46.3,217.6,45.6,217.3,44.9,217.3z"/>
	</g>
	<g>
		<polygon fill="#EFEEF1" points="158.2,142.9 172.6,156.2 199.3,131.6 198.6,122.3 196.9,119.9 193.2,117.6 184.2,118.3 		"/>
		<path fill="#C5BEBD" d="M172.5,157.2c-0.2,0-0.5-0.1-0.7-0.3l-14.7-13.5c-0.2-0.2-0.3-0.4-0.3-0.6c0-0.2,0.1-0.5,0.3-0.6
			l26.7-24.6c0.2-0.2,0.4-0.3,0.7-0.3l8.7,0.3h0c3.6,0,6.6,2.7,6.6,6.1l0.3,8c0,0.2-0.1,0.5-0.3,0.6l-26.7,24.6
			C173,157.1,172.7,157.2,172.5,157.2z M159.1,142.8l13.4,12.3l25.8-23.7l-0.3-7.6c0-2.4-2.1-4.4-4.7-4.4l-8.3-0.3L159.1,142.8z"/>
		<path fill="#C5BEBD" d="M191.9,129.3c-1.3,0-2.4-0.5-3.3-1.3c-1.8-1.7-1.8-4.5,0-6.1c0.9-0.8,2.1-1.3,3.3-1.3
			c1.3,0,2.4,0.5,3.3,1.3c1.8,1.7,1.8,4.5,0,6.1C194.3,128.8,193.1,129.3,191.9,129.3z M191.9,122.3c-0.8,0-1.5,0.3-2,0.8
			c-1.1,1-1.1,2.7,0,3.7c1.1,1,2.9,1,4,0c1.1-1,1.1-2.7,0-3.7C193.3,122.6,192.6,122.3,191.9,122.3z"/>
	</g>
	<g>
		<polygon fill="#EFEEF1" points="434.2,199.9 448.6,213.2 475.3,188.6 474.6,179.3 472.9,176.9 469.2,174.6 460.2,175.3 		"/>
		<path fill="#C5BEBD" d="M448.5,214.2c-0.2,0-0.5-0.1-0.7-0.3l-14.7-13.5c-0.2-0.2-0.3-0.4-0.3-0.6c0-0.2,0.1-0.5,0.3-0.6
			l26.7-24.6c0.2-0.2,0.4-0.3,0.7-0.3l8.7,0.3h0c3.6,0,6.6,2.7,6.6,6.1l0.3,8c0,0.2-0.1,0.5-0.3,0.6l-26.7,24.6
			C449,214.1,448.7,214.2,448.5,214.2z M435.1,199.8l13.4,12.3l25.8-23.7l-0.3-7.6c0-2.4-2.1-4.4-4.7-4.4l-8.3-0.3L435.1,199.8z"/>
		<path fill="#C5BEBD" d="M467.9,186.3c-1.3,0-2.4-0.5-3.3-1.3c-1.8-1.7-1.8-4.5,0-6.1c0.9-0.8,2.1-1.3,3.3-1.3
			c1.3,0,2.4,0.5,3.3,1.3c1.8,1.7,1.8,4.5,0,6.1C470.3,185.8,469.1,186.3,467.9,186.3z M467.9,179.3c-0.8,0-1.5,0.3-2,0.8
			c-1.1,1-1.1,2.7,0,3.7c1.1,1,2.9,1,4,0c1.1-1,1.1-2.7,0-3.7C469.3,179.6,468.6,179.3,467.9,179.3z"/>
	</g>
	<g>
		<polyline fill="#EFEEF1" points="378.3,92 384.2,89.7 418.3,101.2 421.3,101.9 422.2,105.5 411.4,140.9 407.6,141.3 404.1,140.4 
			400.4,139.1 396.6,136.9 392,136.5 389.5,133.7 385.1,134.4 382.2,132 377.5,132.1 373.8,128.8 369.8,130 367.7,126.4 378.3,92 		
			"/>
		<path fill="#C5BEBD" d="M409.8,130.9"/>
		<path fill="#C5BEBD" d="M369.2,131.9c-2.2-0.7-3.2-3.1-2.4-5.7c0.2-0.5,0.7-0.8,1.2-0.7c0.5,0.2,0.8,0.7,0.7,1.2
			c-0.5,1.5,0,2.9,1.1,3.2c1.6,0.5,3.3-0.5,3.8-2.1c0.2-0.5,0.7-0.8,1.2-0.7c0.5,0.2,0.8,0.7,0.7,1.2c-0.5,1.6,0.4,3.2,2,3.7
			c1.6,0.5,3.3-0.4,3.8-2c0.2-0.5,0.7-0.8,1.2-0.7c0.5,0.2,0.8,0.7,0.7,1.2c-0.5,1.6,0.4,3.3,2,3.7c1.6,0.5,3.3-0.4,3.8-2
			c0.2-0.5,0.7-0.8,1.2-0.7c0.5,0.2,0.8,0.7,0.7,1.2c-0.5,1.6,0.4,3.3,2,3.7s3.3-0.4,3.7-2c0.2-0.5,0.7-0.8,1.2-0.7
			c0.5,0.2,0.8,0.7,0.7,1.2c-0.5,1.6,0.4,3.3,2,3.7c1.6,0.5,3.3-0.4,3.7-2c0.2-0.5,0.7-0.8,1.2-0.7c0.5,0.2,0.8,0.7,0.7,1.2
			c-0.4,1.3-0.3,3.1,1.5,3.6s2.9-0.8,3.3-2.1c0.2-0.5,0.7-0.8,1.2-0.7c0.5,0.2,0.8,0.7,0.7,1.2c-0.9,2.8-3.2,4.2-5.8,3.5
			c-1.5-0.5-2.5-1.5-2.9-2.8c-1.2,0.8-2.8,1.1-4.3,0.6c-1.6-0.5-2.7-1.7-3.2-3.1c-1.2,0.9-2.9,1.2-4.4,0.7c-1.6-0.5-2.7-1.7-3.2-3.1
			c-1.2,0.9-2.9,1.2-4.4,0.7c-1.6-0.5-2.7-1.7-3.2-3.1c-1.2,0.9-2.9,1.2-4.4,0.8c-1.5-0.5-2.7-1.6-3.2-3
			C372.4,132,370.7,132.3,369.2,131.9z"/>
		<path fill="#C5BEBD" d="M367.4,127.4c-0.5-0.2-0.8-0.7-0.7-1.2L377,92.7c0.2-0.5,0.7-0.8,1.2-0.7s0.8,0.7,0.7,1.2l-10.3,33.5
			C368.5,127.3,367.9,127.6,367.4,127.4z"/>
		<path fill="#C5BEBD" d="M411.4,140.9c-0.5-0.2-0.8-0.7-0.7-1.2l10.3-33.5c0.2-0.5,0.7-0.8,1.2-0.7c0.5,0.2,0.8,0.7,0.7,1.2
			l-10.3,33.5C412.5,140.8,411.9,141.1,411.4,140.9z"/>
		<path fill="#C5BEBD" d="M418.3,101.2l-33.5-10.3c-0.5-0.2-0.8-0.7-0.7-1.2c0.2-0.5,0.7-0.8,1.2-0.7l33.5,10.3
			c0.5,0.2,0.8,0.7,0.7,1.2C419.4,101.1,418.9,101.4,418.3,101.2z"/>
		<path fill="#C5BEBD" d="M377.7,93.9c-0.5-0.2-0.8-0.7-0.7-1.2c1-3.2,5.4-4.6,8.5-3.7c0.5,0.2,0.8,0.7,0.7,1.2
			c-0.2,0.5-0.7,0.8-1.2,0.7c-2.2-0.7-5.3,0.3-6,2.4C378.8,93.8,378.2,94.1,377.7,93.9z"/>
		<path fill="#C5BEBD" d="M421.7,107.5c-0.5-0.2-0.8-0.7-0.7-1.2c0.6-2.1-0.5-4.4-2.6-5c-0.5-0.2-0.8-0.7-0.7-1.2
			c0.2-0.5,0.7-0.8,1.2-0.7c3.2,1,4.9,4.3,4,7.5C422.7,107.3,422.2,107.6,421.7,107.5z"/>
		<path fill="#C5BEBD" d="M413.8,109.2c-0.2,0.5-0.7,0.8-1.2,0.7l-28.7-8.8c-0.5-0.2-0.8-0.7-0.7-1.2l1.8-5.7
			c0.2-0.5,0.7-0.8,1.2-0.7l28.7,8.8c0.5,0.2,0.8,0.7,0.7,1.2L413.8,109.2z M385.4,99.5l26.8,8.2l1.2-3.8l-26.8-8.2L385.4,99.5z"/>
		<path fill="#C5BEBD" d="M410.2,117.5l-26.8-8.2c-0.5-0.2-0.8-0.7-0.7-1.2c0.2-0.5,0.7-0.8,1.2-0.7l26.8,8.2
			c0.5,0.2,0.8,0.7,0.7,1.2C411.3,117.4,410.7,117.7,410.2,117.5z"/>
		<path fill="#C5BEBD" d="M408.4,123.3l-26.8-8.2c-0.5-0.2-0.8-0.7-0.7-1.2c0.2-0.5,0.7-0.8,1.2-0.7l26.8,8.2
			c0.5,0.2,0.8,0.7,0.7,1.2C409.5,123.1,409,123.4,408.4,123.3z"/>
		<path fill="#C5BEBD" d="M406.7,129l-26.8-8.2c-0.5-0.2-0.8-0.7-0.7-1.2c0.2-0.5,0.7-0.8,1.2-0.7l26.8,8.2c0.5,0.2,0.8,0.7,0.7,1.2
			C407.7,128.9,407.2,129.2,406.7,129z"/>
	</g>
	<g>
		<polyline fill="#EFEEF1" points="159.4,232.2 164.3,230.2 192.6,239.8 195.1,240.3 195.9,243.4 186.8,272.7 183.7,273.1 
			180.8,272.3 177.7,271.3 174.6,269.4 170.8,269.1 168.7,266.7 165,267.4 162.6,265.3 158.7,265.4 155.6,262.7 152.3,263.6 
			150.6,260.7 159.4,232.2 		"/>
		<path fill="#C5BEBD" d="M185.5,264.4"/>
		<path fill="#C5BEBD" d="M151.8,265.2c-1.8-0.6-2.7-2.6-2-4.7c0.1-0.4,0.6-0.7,1-0.5c0.4,0.1,0.7,0.6,0.5,1c-0.4,1.2,0,2.4,0.9,2.7
			c1.3,0.4,2.7-0.4,3.1-1.7c0.1-0.4,0.6-0.7,1-0.5c0.4,0.1,0.7,0.6,0.5,1c-0.4,1.3,0.3,2.7,1.7,3.1c1.3,0.4,2.7-0.3,3.1-1.7
			c0.1-0.4,0.6-0.7,1-0.5c0.4,0.1,0.7,0.6,0.5,1c-0.4,1.3,0.3,2.7,1.7,3.1c1.3,0.4,2.7-0.3,3.1-1.7c0.1-0.4,0.6-0.7,1-0.5
			c0.4,0.1,0.7,0.6,0.5,1c-0.4,1.3,0.3,2.7,1.6,3.1s2.7-0.3,3.1-1.6c0.1-0.4,0.6-0.7,1-0.5c0.4,0.1,0.7,0.6,0.5,1
			c-0.4,1.3,0.3,2.7,1.6,3.1c1.3,0.4,2.7-0.3,3.1-1.6c0.1-0.4,0.6-0.7,1-0.5c0.4,0.1,0.7,0.6,0.5,1c-0.3,1.1-0.2,2.5,1.3,3
			c1.5,0.5,2.4-0.7,2.7-1.8c0.1-0.4,0.6-0.7,1-0.5c0.4,0.1,0.7,0.6,0.5,1c-0.7,2.3-2.7,3.5-4.8,2.9c-1.2-0.4-2.1-1.2-2.4-2.4
			c-1,0.7-2.3,0.9-3.5,0.5c-1.3-0.4-2.3-1.4-2.7-2.6c-1,0.7-2.4,1-3.7,0.6c-1.3-0.4-2.3-1.4-2.7-2.6c-1,0.7-2.4,1-3.7,0.6
			c-1.3-0.4-2.3-1.4-2.7-2.5c-1,0.8-2.4,1-3.7,0.6c-1.3-0.4-2.2-1.4-2.7-2.5C154.5,265.3,153.1,265.6,151.8,265.2z"/>
		<path fill="#C5BEBD" d="M150.3,261.5c-0.4-0.1-0.7-0.6-0.5-1l8.5-27.8c0.1-0.4,0.6-0.7,1-0.5s0.7,0.6,0.5,1l-8.5,27.8
			C151.2,261.4,150.8,261.7,150.3,261.5z"/>
		<path fill="#C5BEBD" d="M186.8,272.7c-0.4-0.1-0.7-0.6-0.5-1l8.5-27.8c0.1-0.4,0.6-0.7,1-0.5s0.7,0.6,0.5,1l-8.5,27.8
			C187.7,272.6,187.3,272.9,186.8,272.7z"/>
		<path fill="#C5BEBD" d="M192.6,239.8l-27.8-8.5c-0.4-0.1-0.7-0.6-0.5-1s0.6-0.7,1-0.5l27.8,8.5c0.4,0.1,0.7,0.6,0.5,1
			C193.5,239.7,193.1,239.9,192.6,239.8z"/>
		<path fill="#C5BEBD" d="M158.9,233.8c-0.4-0.1-0.7-0.6-0.5-1c0.8-2.7,4.4-3.8,7-3.1c0.4,0.1,0.7,0.6,0.5,1c-0.1,0.4-0.6,0.7-1,0.5
			c-1.8-0.5-4.4,0.2-4.9,2C159.8,233.6,159.3,233.9,158.9,233.8z"/>
		<path fill="#C5BEBD" d="M195.4,245c-0.4-0.1-0.7-0.6-0.5-1c0.5-1.8-0.4-3.6-2.2-4.1c-0.4-0.1-0.7-0.6-0.5-1c0.1-0.4,0.6-0.7,1-0.5
			c2.6,0.8,4.1,3.6,3.3,6.2C196.3,244.9,195.8,245.1,195.4,245z"/>
		<path fill="#C5BEBD" d="M188.8,246.4c-0.1,0.4-0.6,0.7-1,0.5l-23.8-7.3c-0.4-0.1-0.7-0.6-0.5-1l1.5-4.8c0.1-0.4,0.6-0.7,1-0.5
			l23.8,7.3c0.4,0.1,0.7,0.6,0.5,1L188.8,246.4z M165.3,238.3l22.2,6.8l1-3.2l-22.2-6.8L165.3,238.3z"/>
		<path fill="#C5BEBD" d="M185.8,253.3l-22.2-6.8c-0.4-0.1-0.7-0.6-0.5-1c0.1-0.4,0.6-0.7,1-0.5l22.2,6.8c0.4,0.1,0.7,0.6,0.5,1
			C186.8,253.2,186.3,253.5,185.8,253.3z"/>
		<path fill="#C5BEBD" d="M184.4,258.1l-22.2-6.8c-0.4-0.1-0.7-0.6-0.5-1c0.1-0.4,0.6-0.7,1-0.5l22.2,6.8c0.4,0.1,0.7,0.6,0.5,1
			C185.3,258,184.8,258.2,184.4,258.1z"/>
		<path fill="#C5BEBD" d="M182.9,262.9l-22.2-6.8c-0.4-0.1-0.7-0.6-0.5-1c0.1-0.4,0.6-0.7,1-0.5l22.2,6.8c0.4,0.1,0.7,0.6,0.5,1
			C183.8,262.7,183.4,263,182.9,262.9z"/>
	</g>
	<g>
		<polyline fill="#EFEEF1" points="494.6,195.2 534,207.3 523.8,228.3 492.2,219.6 494.6,195.2 		"/>
		<path fill="#C5BEBD" d="M538,210.4L490.4,196c-0.6-0.2-0.8-1.2-0.6-1.8c0.2-0.6,0.9-1.3,1.5-1.1l47.6,14.4
			c0.6,0.2,0.8,1.2,0.6,1.8C539.4,209.9,538.6,210.6,538,210.4z"/>
		<path fill="#C5BEBD" d="M522.5,228.7l-30.3-9.2c-0.5-0.2-0.9-0.6-0.8-1.1l2-22.2c0.1-0.6,0.6-1.1,1.2-1c0.6,0.1,1.1,0.7,1,1.3
			l-1.9,21.4l28.5,8.6l10.2-18.7c0.3-0.5,1-0.8,1.5-0.5c0.5,0.3,0.8,1,0.5,1.5l-10.6,19.3C523.6,228.7,523.1,228.8,522.5,228.7z"/>
		<path fill="#C5BEBD" d="M499,197.3c-0.3-0.1-0.5-0.2-0.6-0.5c-0.3-0.5-0.2-1.2,0.4-1.6l11.6-7.1c0.5-0.3,1.2-0.2,1.6,0.4
			c0.3,0.5,0.2,1.2-0.4,1.6l-11.6,7.1C499.6,197.4,499.3,197.4,499,197.3z"/>
		<path fill="#C5BEBD" d="M529.3,206.5c-0.3-0.1-0.6-0.3-0.7-0.6l-5.7-12.4c-0.3-0.6,0-1.2,0.6-1.5c0.6-0.3,1.2,0,1.5,0.6l5.7,12.4
			c0.3,0.6,0,1.2-0.6,1.5C529.8,206.6,529.5,206.6,529.3,206.5z"/>
	</g>
	<g>
		<polyline fill="#EFEEF1" points="83.6,228.2 123,240.3 112.8,261.3 81.2,252.6 83.6,228.2 		"/>
		<path fill="#C5BEBD" d="M127,243.4L79.4,229c-0.6-0.2-0.8-1.2-0.6-1.8c0.2-0.6,0.9-1.3,1.5-1.1l47.6,14.4c0.6,0.2,0.8,1.2,0.6,1.8
			C128.4,242.9,127.6,243.6,127,243.4z"/>
		<path fill="#C5BEBD" d="M111.5,261.7l-30.3-9.2c-0.5-0.2-0.9-0.6-0.8-1.1l2-22.2c0.1-0.6,0.6-1.1,1.2-1c0.6,0.1,1.1,0.7,1,1.3
			l-1.9,21.4l28.5,8.6l10.2-18.7c0.3-0.5,1-0.8,1.5-0.5c0.5,0.3,0.8,1,0.5,1.5l-10.6,19.3C112.6,261.7,112.1,261.8,111.5,261.7z"/>
		<path fill="#C5BEBD" d="M88,230.3c-0.3-0.1-0.5-0.2-0.6-0.5c-0.3-0.5-0.2-1.2,0.4-1.6l11.6-7.1c0.5-0.3,1.2-0.2,1.6,0.4
			c0.3,0.5,0.2,1.2-0.4,1.6l-11.6,7.1C88.6,230.4,88.3,230.4,88,230.3z"/>
		<path fill="#C5BEBD" d="M118.3,239.5c-0.3-0.1-0.6-0.3-0.7-0.6l-5.7-12.4c-0.3-0.6,0-1.2,0.6-1.5c0.6-0.3,1.2,0,1.5,0.6l5.7,12.4
			c0.3,0.6,0,1.2-0.6,1.5C118.8,239.6,118.5,239.6,118.3,239.5z"/>
	</g>
</g>
<g id="icons_1_">
	<ellipse fill="#EFEEF1" cx="196.2" cy="65" rx="14.8" ry="14.5"/>
	<g>
		<g>
			<path fill="#C5BEBD" d="M211.2,96.6c-7,0-13.1-4.2-15.7-10.7c-0.2-0.5,0-1.1,0.6-1.3c0.5-0.2,1.1,0,1.3,0.6
				c2.3,5.7,7.8,9.4,13.9,9.4c8.3,0,15-6.7,15-15c0-6.1-3.7-11.6-9.4-13.9c-0.5-0.2-0.8-0.8-0.6-1.3c0.2-0.5,0.8-0.8,1.3-0.6
				c6.5,2.6,10.7,8.8,10.7,15.7C228.2,89,220.6,96.6,211.2,96.6z"/>
			<path fill="#C5BEBD" d="M211.2,92.6c-4.8,0-9.1-2.6-11.4-6.8c-0.3-0.5-0.1-1.1,0.4-1.4c0.5-0.3,1.1-0.1,1.4,0.4
				c1.9,3.6,5.6,5.8,9.7,5.8c6.1,0,11-4.9,11-11c0-4-2.2-7.7-5.8-9.7c-0.5-0.3-0.7-0.9-0.4-1.4c0.3-0.5,0.9-0.7,1.4-0.4
				c4.2,2.3,6.8,6.7,6.8,11.4C224.2,86.8,218.4,92.6,211.2,92.6z"/>
		</g>
		<path fill="#C5BEBD" d="M196.2,80.6c-8.8,0-16-7.2-16-16c0-8.8,7.2-16,16-16c8.8,0,16,7.2,16,16C212.2,73.5,205.1,80.6,196.2,80.6
			z M196.2,50.6c-7.7,0-14,6.3-14,14c0,7.7,6.3,14,14,14s14-6.3,14-14C210.2,56.9,203.9,50.6,196.2,50.6z"/>
		<path fill="#C5BEBD" d="M196.2,75.6c-6.1,0-11-4.9-11-11c0-6.1,4.9-11,11-11s11,4.9,11,11C207.2,70.7,202.3,75.6,196.2,75.6z
			 M196.2,55.6c-5,0-9,4-9,9c0,5,4,9,9,9c5,0,9-4,9-9C205.2,59.7,201.2,55.6,196.2,55.6z"/>
		<g>
			<path fill="#C5BEBD" d="M196.3,70.2c-2.1,0-3.5-1.3-3.5-3.1c0-0.6,0.4-1,1-1c0.6,0,1,0.4,1,1c0,0.9,0.9,1.1,1.5,1.1
				c0.6,0,1.5-0.1,1.5-1.1c0-0.6-0.1-0.7-1.5-1.4l-0.8-0.4c-1.4-0.7-2.6-1.3-2.6-3.2c0-1.8,1.4-3.1,3.5-3.1c2,0,3.5,1.3,3.5,3.1
				c0,0.6-0.4,1-1,1c-0.6,0-1-0.4-1-1c0-1-0.9-1.1-1.5-1.1c-0.4,0-1.5,0.1-1.5,1.1c0,0.6,0.1,0.7,1.5,1.4l0.8,0.4
				c1.4,0.7,2.7,1.3,2.7,3.2C199.8,68.9,198.4,70.2,196.3,70.2z"/>
			<path fill="#C5BEBD" d="M196,60.6c-0.6,0-1-0.4-1-1v-1c0-0.6,0.4-1,1-1s1,0.4,1,1v1C197,60.2,196.6,60.6,196,60.6z"/>
			<path fill="#C5BEBD" d="M196,71.6c-0.6,0-1-0.4-1-1v-1.4c0-0.6,0.4-1,1-1s1,0.4,1,1v1.4C197,71.2,196.6,71.6,196,71.6z"/>
		</g>
	</g>
</g>
<g>
	<path fill="#574C45" d="M391.7,328.3c0,10.9-9,19.7-20,19.7h-136c-11,0-20-8.8-20-19.7V27c0-10.9,9-19.7,20-19.7h136
		c11,0,20,8.8,20,19.7V328.3z"/>
	<path fill="#FFFFFF" d="M389.8,326.3c0,11.1-9,20.1-20.2,20.1H237.8c-11.1,0-20.2-9-20.2-20.1V28.6c0-11.1,9-20.1,20.2-20.1h131.8
		c11.1,0,20.2,9,20.2,20.1V326.3z"/>
	<path fill="#574C45" d="M380.7,302.4c0,1.6-1.6,3-3.6,3H229.6c-2,0-3.6-1.3-3.6-3V59c0-1.6,1.6-3,3.6-3H377c2,0,3.6,1.3,3.6,3
		V302.4z"/>
	<rect x="228" y="58" fill="#311A08" width="150.7" height="245.3"/>
	<path fill="#574C45" d="M321.7,39.8c0,1.6-1.3,2.8-2.8,2.8h-28.7c-1.6,0-2.8-1.3-2.8-2.8l0,0c0-1.6,1.3-2.8,2.8-2.8h28.7
		C320.4,37,321.7,38.3,321.7,39.8L321.7,39.8z"/>
	<ellipse fill="#574C45" cx="282" cy="39.7" rx="1.8" ry="2"/>
	<ellipse fill="#574C45" cx="305.3" cy="30.3" rx="3.2" ry="3"/>
	<circle fill="#574C45" cx="307.5" cy="325.5" r="13.4"/>
	<circle fill="#FFFFFF" cx="307.5" cy="325.5" r="12.3"/>
	<g>
		<path fill="#FFFFFF" d="M261.7,192.5l-0.8,2.5h-1.1l2.7-8.1h1.3l2.8,8.1h-1.1l-0.9-2.5H261.7z M264.4,191.6l-0.8-2.3
			c-0.2-0.5-0.3-1-0.4-1.5h0c-0.1,0.5-0.3,1-0.4,1.5l-0.8,2.3H264.4z"/>
		<path fill="#FFFFFF" d="M268.1,189.2l1.1,3.3c0.2,0.5,0.3,1,0.5,1.5h0c0.1-0.5,0.3-1,0.5-1.5l1.1-3.3h1.1l-2.3,5.8h-1l-2.2-5.8
			H268.1z"/>
		<path fill="#FFFFFF" d="M276.7,195l-0.1-0.7h0c-0.3,0.5-0.9,0.9-1.8,0.9c-1.2,0-1.8-0.8-1.8-1.7c0-1.4,1.2-2.2,3.5-2.2v-0.1
			c0-0.5-0.1-1.3-1.3-1.3c-0.5,0-1.1,0.2-1.5,0.4l-0.2-0.7c0.5-0.3,1.2-0.5,1.9-0.5c1.8,0,2.2,1.2,2.2,2.4v2.2c0,0.5,0,1,0.1,1.4
			H276.7z M276.6,192c-1.2,0-2.5,0.2-2.5,1.3c0,0.7,0.5,1,1,1c0.8,0,1.2-0.5,1.4-1c0-0.1,0.1-0.2,0.1-0.3V192z"/>
		<path fill="#FFFFFF" d="M280.5,187.6c0,0.4-0.3,0.6-0.7,0.6c-0.4,0-0.6-0.3-0.6-0.6c0-0.4,0.3-0.7,0.7-0.7
			C280.2,186.9,280.5,187.2,280.5,187.6z M279.3,195v-5.8h1.1v5.8H279.3z"/>
		<path fill="#FFFFFF" d="M282.1,186.5h1.1v8.5h-1.1V186.5z"/>
		<path fill="#FFFFFF" d="M288.1,195l-0.1-0.7h0c-0.3,0.5-0.9,0.9-1.8,0.9c-1.2,0-1.8-0.8-1.8-1.7c0-1.4,1.2-2.2,3.5-2.2v-0.1
			c0-0.5-0.1-1.3-1.3-1.3c-0.5,0-1.1,0.2-1.5,0.4l-0.2-0.7c0.5-0.3,1.2-0.5,1.9-0.5c1.8,0,2.2,1.2,2.2,2.4v2.2c0,0.5,0,1,0.1,1.4
			H288.1z M288,192c-1.2,0-2.5,0.2-2.5,1.3c0,0.7,0.5,1,1,1c0.8,0,1.2-0.5,1.4-1c0-0.1,0.1-0.2,0.1-0.3V192z"/>
		<path fill="#FFFFFF" d="M290.7,195c0-0.4,0-1,0-1.5v-7h1v3.6h0c0.4-0.6,1-1.1,2-1.1c1.4,0,2.5,1.2,2.4,3c0,2.1-1.3,3.1-2.6,3.1
			c-0.8,0-1.5-0.3-1.9-1.1h0l0,1H290.7z M291.8,192.7c0,0.1,0,0.3,0,0.4c0.2,0.7,0.8,1.2,1.6,1.2c1.1,0,1.8-0.9,1.8-2.2
			c0-1.2-0.6-2.2-1.7-2.2c-0.7,0-1.4,0.5-1.6,1.3c0,0.1-0.1,0.3-0.1,0.4V192.7z"/>
		<path fill="#FFFFFF" d="M297.5,186.5h1.1v8.5h-1.1V186.5z"/>
		<path fill="#FFFFFF" d="M301,192.3c0,1.4,0.9,2,2,2c0.8,0,1.2-0.1,1.6-0.3l0.2,0.8c-0.4,0.2-1,0.4-1.9,0.4c-1.8,0-2.9-1.2-2.9-2.9
			s1-3.1,2.7-3.1c1.9,0,2.4,1.7,2.4,2.7c0,0.2,0,0.4,0,0.5H301z M304,191.5c0-0.7-0.3-1.7-1.5-1.7c-1.1,0-1.5,1-1.6,1.7H304z"/>
		<path fill="#FFFFFF" d="M309,187c0.5-0.1,1.2-0.2,1.9-0.2c1,0,1.7,0.2,2.2,0.6c0.4,0.3,0.7,0.8,0.7,1.4c0,0.8-0.5,1.5-1.4,1.8v0
			c0.8,0.2,1.7,0.8,1.7,2c0,0.7-0.3,1.2-0.7,1.6c-0.6,0.5-1.5,0.8-2.8,0.8c-0.7,0-1.3,0-1.6-0.1V187z M310,190.3h0.9
			c1.1,0,1.8-0.6,1.8-1.4c0-0.9-0.7-1.3-1.8-1.3c-0.5,0-0.8,0-0.9,0.1V190.3z M310,194.2c0.2,0,0.5,0,0.9,0c1.1,0,2.1-0.4,2.1-1.6
			c0-1.1-0.9-1.6-2.1-1.6H310V194.2z"/>
		<path fill="#FFFFFF" d="M318.6,195l-0.1-0.7h0c-0.3,0.5-0.9,0.9-1.8,0.9c-1.2,0-1.8-0.8-1.8-1.7c0-1.4,1.2-2.2,3.5-2.2v-0.1
			c0-0.5-0.1-1.3-1.3-1.3c-0.5,0-1.1,0.2-1.5,0.4l-0.2-0.7c0.5-0.3,1.2-0.5,1.9-0.5c1.8,0,2.2,1.2,2.2,2.4v2.2c0,0.5,0,1,0.1,1.4
			H318.6z M318.5,192c-1.2,0-2.5,0.2-2.5,1.3c0,0.7,0.5,1,1,1c0.8,0,1.2-0.5,1.4-1c0-0.1,0.1-0.2,0.1-0.3V192z"/>
		<path fill="#FFFFFF" d="M321.2,186.5h1.1v8.5h-1.1V186.5z"/>
		<path fill="#FFFFFF" d="M327.3,195l-0.1-0.7h0c-0.3,0.5-0.9,0.9-1.8,0.9c-1.2,0-1.8-0.8-1.8-1.7c0-1.4,1.2-2.2,3.5-2.2v-0.1
			c0-0.5-0.1-1.3-1.3-1.3c-0.5,0-1.1,0.2-1.5,0.4l-0.2-0.7c0.5-0.3,1.2-0.5,1.9-0.5c1.8,0,2.2,1.2,2.2,2.4v2.2c0,0.5,0,1,0.1,1.4
			H327.3z M327.1,192c-1.2,0-2.5,0.2-2.5,1.3c0,0.7,0.5,1,1,1c0.8,0,1.2-0.5,1.4-1c0-0.1,0.1-0.2,0.1-0.3V192z"/>
		<path fill="#FFFFFF" d="M329.8,190.8c0-0.6,0-1.1,0-1.6h0.9l0.1,1h0c0.3-0.6,1-1.1,1.9-1.1c0.8,0,2.1,0.5,2.1,2.5v3.5h-1.1v-3.3
			c0-0.9-0.3-1.7-1.3-1.7c-0.7,0-1.2,0.5-1.4,1.1c0,0.1-0.1,0.3-0.1,0.5v3.5h-1.1V190.8z"/>
		<path fill="#FFFFFF" d="M340.6,194.8c-0.3,0.1-0.9,0.3-1.7,0.3c-1.8,0-2.9-1.2-2.9-3c0-1.8,1.2-3.1,3.1-3.1c0.6,0,1.2,0.2,1.5,0.3
			l-0.2,0.8c-0.3-0.1-0.6-0.3-1.2-0.3c-1.3,0-2.1,1-2.1,2.2c0,1.3,0.9,2.2,2,2.2c0.6,0,1-0.2,1.3-0.3L340.6,194.8z"/>
		<path fill="#FFFFFF" d="M342.5,192.3c0,1.4,0.9,2,2,2c0.8,0,1.2-0.1,1.6-0.3l0.2,0.8c-0.4,0.2-1,0.4-1.9,0.4
			c-1.8,0-2.9-1.2-2.9-2.9s1-3.1,2.7-3.1c1.9,0,2.4,1.7,2.4,2.7c0,0.2,0,0.4,0,0.5H342.5z M345.5,191.5c0-0.7-0.3-1.7-1.5-1.7
			c-1.1,0-1.5,1-1.6,1.7H345.5z"/>
	</g>
	<text transform="matrix(1 0 0 1 264.9004 239.5)" fill="#BFB024" font-family="'MyriadPro-Regular'" font-size="36">$</text>
	<text transform="matrix(1 0 0 1 294.0654 239)" fill="#BFB024" font-family="'MyriadPro-Regular'" font-size="36">45</text>
	<path fill="#26A3DD" d="M358,277.5c0,2.2-1.8,4-4,4H253.5c-2.2,0-4-1.8-4-4V260c0-2.2,1.8-4,4-4H354c2.2,0,4,1.8,4,4V277.5z"/>
	<g>
		<g>
			<path fill="#F8F9FD" d="M278.9,264c0.7-0.1,1.6-0.2,2.5-0.2c1.4,0,2.3,0.3,2.9,0.8c0.5,0.5,0.8,1.1,0.8,1.9
				c0,1.3-0.8,2.2-1.9,2.6v0c0.8,0.3,1.2,1,1.5,2c0.3,1.4,0.6,2.4,0.8,2.8h-1.3c-0.2-0.3-0.4-1.2-0.7-2.4c-0.3-1.4-0.8-1.9-2-2h-1.2
				v4.4h-1.3V264z M280.2,268.6h1.3c1.4,0,2.3-0.8,2.3-1.9c0-1.3-0.9-1.9-2.3-1.9c-0.6,0-1.1,0.1-1.3,0.1V268.6z"/>
			<path fill="#F8F9FD" d="M292.2,269.3h-3.9v3.6h4.4v1.1H287v-10.1h5.5v1.1h-4.2v3.2h3.9V269.3z"/>
			<path fill="#F8F9FD" d="M294.3,264c0.8-0.1,1.7-0.2,2.8-0.2c1.9,0,3.2,0.4,4.1,1.3c0.9,0.8,1.4,2,1.4,3.6c0,1.7-0.5,3-1.5,3.9
				c-0.9,0.9-2.5,1.5-4.5,1.5c-0.9,0-1.7,0-2.4-0.1V264z M295.6,273c0.3,0.1,0.8,0.1,1.3,0.1c2.8,0,4.3-1.6,4.3-4.3
				c0-2.4-1.3-3.9-4.1-3.9c-0.7,0-1.2,0.1-1.5,0.1V273z"/>
			<path fill="#F8F9FD" d="M309.6,269.3h-3.9v3.6h4.4v1.1h-5.7v-10.1h5.5v1.1h-4.2v3.2h3.9V269.3z"/>
			<path fill="#F8F9FD" d="M316.9,269.3H313v3.6h4.4v1.1h-5.7v-10.1h5.5v1.1H313v3.2h3.9V269.3z"/>
			<path fill="#F8F9FD" d="M327.6,269.6c-0.1-1.4-0.2-3.1-0.1-4.4h0c-0.3,1.2-0.8,2.4-1.3,3.8l-1.8,4.9h-1l-1.6-4.8
				c-0.5-1.4-0.9-2.7-1.2-3.9h0c0,1.3-0.1,3-0.2,4.5l-0.3,4.3h-1.2l0.7-10.1h1.7l1.7,4.9c0.4,1.2,0.8,2.4,1,3.4h0
				c0.3-1,0.6-2.1,1.1-3.4l1.8-4.9h1.7l0.6,10.1h-1.3L327.6,269.6z"/>
		</g>
	</g>
</g>
<g id="icons">
	<path fill="#7D5837" d="M337.2,107.7H312c0,0,0,0,0,0c0.1,0.1,0.2,0.1,0.3,0.2c0,0,0,0,0.1,0c0.7,0,1.4,0.1,2,0.1
		c1.4,0,2.8-0.1,4.2,0.1c2.6,0.3,4.9,1.8,5.2,4.4c0.4,0.5,0.7,1.1,0.9,1.8c0.2,0.7,0.3,1.3,0.5,2c0.3,1.2,0.1,2.5-0.4,3.6
		c0.3,1.4,0.5,2.9,0.5,4.4c0.8,4,0.6,8.1,0.1,12.1c0,0.1,0.1,0.2,0.2,0.2c0.4,0.7,0.6,1.4,0.7,2h11c2.3,0,4.2-1.8,4.2-4v-22.8
		C341.4,109.5,339.5,107.7,337.2,107.7z"/>
	<g>
		<ellipse fill="#DBA328" cx="332.4" cy="116.4" rx="7.1" ry="7.3"/>
		<path fill="#FECD30" d="M332.3,107.7c-4.8,0-8.7,3.9-8.7,8.7c0,4.8,3.9,8.7,8.7,8.7c4.8,0,8.7-3.9,8.7-8.7
			C340.9,111.6,337,107.7,332.3,107.7z M332.3,122.9c-3.6,0-6.5-2.9-6.5-6.5c0-3.6,2.9-6.5,6.5-6.5c3.6,0,6.5,2.9,6.5,6.5
			C338.8,120,335.8,122.9,332.3,122.9z"/>
		<ellipse fill="#FAD450" cx="332.4" cy="116.5" rx="3.5" ry="4.4"/>
		<path fill="#EAB429" d="M332.3,110.6c-3.2,0-5.8,2.6-5.8,5.8c0,3.2,2.6,5.8,5.8,5.8c3.2,0,5.8-2.6,5.8-5.8
			C338,113.2,335.4,110.6,332.3,110.6z M332.6,119.5v0.4c0,0.2-0.2,0.4-0.4,0.4c-0.2,0-0.4-0.2-0.4-0.4v-0.4
			c-0.9-0.1-1.5-0.7-1.5-1.6c0-0.2,0.2-0.4,0.4-0.4c0.2,0,0.4,0.2,0.4,0.4c0,0.9,0.9,0.9,1.2,0.9c0.3,0,1.2-0.1,1.2-0.9
			c0-0.5-0.2-0.7-1.1-1.1l-0.5-0.2c-0.9-0.4-1.5-0.7-1.5-1.7c0-0.9,0.6-1.5,1.5-1.6v-0.4c0-0.2,0.2-0.4,0.4-0.4
			c0.2,0,0.4,0.2,0.4,0.4v0.4c0.9,0.1,1.5,0.8,1.5,1.6c0,0.2-0.2,0.4-0.4,0.4c-0.2,0-0.4-0.2-0.4-0.4c0-0.9-0.9-0.9-1.2-0.9
			c-0.6,0-1.2,0.2-1.2,0.9c0,0.5,0.2,0.7,1.1,1.1l0.5,0.2c0.9,0.4,1.5,0.7,1.5,1.7C334.2,118.8,333.6,119.4,332.6,119.5z"/>
	</g>
	<g>
		<ellipse fill="#DBA328" cx="332.6" cy="129.3" rx="7.1" ry="7.3"/>
		<path fill="#FECD30" d="M332.4,120.6c-4.8,0-8.7,3.9-8.7,8.7s3.9,8.7,8.7,8.7s8.7-3.9,8.7-8.7S337.2,120.6,332.4,120.6z
			 M332.4,135.8c-3.6,0-6.5-2.9-6.5-6.5c0-3.6,2.9-6.5,6.5-6.5s6.5,2.9,6.5,6.5C338.9,132.9,336,135.8,332.4,135.8z"/>
		<ellipse fill="#FAD450" cx="332.5" cy="129.4" rx="3.5" ry="4.4"/>
		<path fill="#EAB429" d="M332.4,123.5c-3.2,0-5.8,2.6-5.8,5.8c0,3.2,2.6,5.8,5.8,5.8s5.8-2.6,5.8-5.8
			C338.2,126.1,335.6,123.5,332.4,123.5z M332.8,132.5v0.4c0,0.2-0.2,0.4-0.4,0.4c-0.2,0-0.4-0.2-0.4-0.4v-0.4
			c-0.9-0.1-1.5-0.7-1.5-1.6c0-0.2,0.2-0.4,0.4-0.4c0.2,0,0.4,0.2,0.4,0.4c0,0.9,0.9,0.9,1.2,0.9s1.2-0.1,1.2-0.9
			c0-0.5-0.2-0.7-1.1-1.1l-0.5-0.2c-0.9-0.4-1.5-0.7-1.5-1.7c0-0.9,0.6-1.5,1.5-1.6v-0.4c0-0.2,0.2-0.4,0.4-0.4
			c0.2,0,0.4,0.2,0.4,0.4v0.4c0.9,0.1,1.5,0.8,1.5,1.6c0,0.2-0.2,0.4-0.4,0.4c-0.2,0-0.4-0.2-0.4-0.4c0-0.9-0.9-0.9-1.2-0.9
			c-0.6,0-1.2,0.2-1.2,0.9c0,0.5,0.2,0.7,1.1,1.1l0.5,0.2c0.9,0.4,1.5,0.7,1.5,1.7C334.3,131.7,333.7,132.3,332.8,132.5z"/>
	</g>
	<g>
		<ellipse fill="#DBA328" cx="332.1" cy="142.1" rx="7.1" ry="7.3"/>
		<path fill="#FECD30" d="M331.9,133.4c-4.8,0-8.7,3.9-8.7,8.7c0,4.8,3.9,8.7,8.7,8.7s8.7-3.9,8.7-8.7
			C340.6,137.2,336.7,133.4,331.9,133.4z M331.9,148.5c-3.6,0-6.5-2.9-6.5-6.5c0-3.6,2.9-6.5,6.5-6.5s6.5,2.9,6.5,6.5
			C338.4,145.6,335.5,148.5,331.9,148.5z"/>
		<ellipse fill="#FAD450" cx="332.1" cy="142.1" rx="3.5" ry="4.4"/>
		<path fill="#EAB429" d="M331.9,136.3c-3.2,0-5.8,2.6-5.8,5.8c0,3.2,2.6,5.8,5.8,5.8s5.8-2.6,5.8-5.8
			C337.7,138.8,335.1,136.3,331.9,136.3z M332.3,145.2v0.4c0,0.2-0.2,0.4-0.4,0.4c-0.2,0-0.4-0.2-0.4-0.4v-0.4
			c-0.9-0.1-1.5-0.7-1.5-1.6c0-0.2,0.2-0.4,0.4-0.4c0.2,0,0.4,0.2,0.4,0.4c0,0.9,0.9,0.9,1.2,0.9s1.2-0.1,1.2-0.9
			c0-0.5-0.2-0.7-1.1-1.1l-0.5-0.2c-0.9-0.4-1.5-0.7-1.5-1.7c0-0.9,0.6-1.5,1.5-1.6v-0.4c0-0.2,0.2-0.4,0.4-0.4
			c0.2,0,0.4,0.2,0.4,0.4v0.4c0.9,0.1,1.5,0.8,1.5,1.6c0,0.2-0.2,0.4-0.4,0.4c-0.2,0-0.4-0.2-0.4-0.4c0-0.9-0.9-0.9-1.2-0.9
			c-0.6,0-1.2,0.2-1.2,0.9c0,0.5,0.2,0.7,1.1,1.1l0.5,0.2c0.9,0.4,1.5,0.7,1.5,1.7C333.8,144.5,333.2,145.1,332.3,145.2z"/>
	</g>
	<g>
		<ellipse fill="#DBA328" cx="318.1" cy="152.3" rx="7.1" ry="7.3"/>
		<path fill="#FECD30" d="M318,143.6c-4.8,0-8.7,3.9-8.7,8.7c0,4.8,3.9,8.7,8.7,8.7c4.8,0,8.7-3.9,8.7-8.7
			C326.6,147.4,322.8,143.6,318,143.6z M318,158.7c-3.6,0-6.5-2.9-6.5-6.5c0-3.6,2.9-6.5,6.5-6.5c3.6,0,6.5,2.9,6.5,6.5
			C324.5,155.8,321.6,158.7,318,158.7z"/>
		<ellipse fill="#FAD450" cx="318.1" cy="152.3" rx="3.5" ry="4.4"/>
		<path fill="#EAB429" d="M318,146.4c-3.2,0-5.8,2.6-5.8,5.8c0,3.2,2.6,5.8,5.8,5.8c3.2,0,5.8-2.6,5.8-5.8
			C323.8,149,321.2,146.4,318,146.4z M318.3,155.4v0.4c0,0.2-0.2,0.4-0.4,0.4c-0.2,0-0.4-0.2-0.4-0.4v-0.4c-0.9-0.1-1.5-0.7-1.5-1.6
			c0-0.2,0.2-0.4,0.4-0.4c0.2,0,0.4,0.2,0.4,0.4c0,0.9,0.9,0.9,1.2,0.9c0.3,0,1.2-0.1,1.2-0.9c0-0.5-0.2-0.7-1.1-1.1l-0.5-0.2
			c-0.9-0.4-1.5-0.7-1.5-1.7c0-0.9,0.6-1.5,1.5-1.6v-0.4c0-0.2,0.2-0.4,0.4-0.4c0.2,0,0.4,0.2,0.4,0.4v0.4c0.9,0.1,1.5,0.8,1.5,1.6
			c0,0.2-0.2,0.4-0.4,0.4c-0.2,0-0.4-0.2-0.4-0.4c0-0.9-0.9-0.9-1.2-0.9c-0.6,0-1.2,0.2-1.2,0.9c0,0.5,0.2,0.7,1.1,1.1l0.5,0.2
			c0.9,0.4,1.5,0.7,1.5,1.7C319.9,154.6,319.3,155.3,318.3,155.4z"/>
	</g>
	<g>
		<rect x="285.3" y="97.2" fill="#0B6739" width="31" height="15.7"/>
		<circle fill="#35B46A" cx="300.7" cy="105" r="2.2"/>
		<path fill="#35B46A" d="M302.6,99.4l-1.2,0.1c-3.3,0.3-6.8,0.6-10.3,0.6c-0.8,0-1,0-1.4,0c-0.3,0-0.4-0.1-1.3-0.1v10.4
			c1,0,1.1,0.1,1.4,0.1c0.4,0,0.6,0,1.3,0c3.3,0,6.2-0.3,9.2-0.6c3.2-0.3,6.4-0.6,10-0.6c1.3,0,2.8,0,4.3,0.1V99.1
			c-1.4-0.1-3.1-0.1-4.5-0.1C307.3,99,305.2,99.2,302.6,99.4z M300.7,108.7c-2.1,0-3.7-1.7-3.7-3.7c0-2.1,1.7-3.7,3.7-3.7
			c2.1,0,3.7,1.7,3.7,3.7C304.5,107,302.8,108.7,300.7,108.7z"/>
		<path fill="#35B46A" d="M318.8,95c-2.5-0.3-5-0.5-7.6-0.5c-3.5,0-6.7,0.3-9.8,0.6c-3.1,0.3-6.2,0.6-9.6,0.6
			c-2.5,0-4.9-0.2-7.4-0.5c-0.2,0-0.4,0-0.6,0.2c-0.2,0.1-0.3,0.3-0.3,0.6v17.9c0,0.4,0.3,0.7,0.7,0.7c2.5,0.3,5,0.5,7.6,0.5
			c3.5,0,6.7-0.3,9.8-0.6c3.1-0.3,6.2-0.6,9.6-0.6c2.5,0,4.9,0.2,7.4,0.5c0.2,0,0.4,0,0.6-0.2c0.2-0.1,0.3-0.3,0.3-0.6V95.7
			C319.4,95.4,319.1,95.1,318.8,95z M315.8,110.4c0,0.2-0.1,0.4-0.2,0.5c-0.2,0.1-0.4,0.2-0.6,0.2c-1.5-0.1-3.2-0.2-4.7-0.2
			c-3.6,0-6.7,0.3-9.8,0.6c-3.1,0.3-6.1,0.6-9.4,0.6c-0.8,0-1,0-1.4-0.1c-0.4,0-0.3-0.1-1.8-0.1c-0.4,0-0.7-0.3-0.7-0.7V99.2
			c0-0.2,0.1-0.4,0.2-0.5c0.1-0.1,0.3-0.2,0.5-0.2c1.5,0.1,1.5,0.1,1.9,0.1c0.4,0,0.6,0,1.3,0c3.5,0,6.9-0.3,10.2-0.6l1.2-0.1
			c2.6-0.2,4.8-0.5,7.7-0.5c1.6,0,3.5,0.1,5,0.2c0.4,0,0.7,0.4,0.7,0.7V110.4z"/>
	</g>
	<rect x="280.3" y="112.2" fill="#311A08" width="43" height="30.7"/>
	<g id="icons_3_">
		<g>
			<circle fill="#7D5837" cx="317.7" cy="128.6" r="1"/>
			<path fill="#7D5837" d="M319.6,107.3L319.6,107.3l-34.2-0.1l-0.1,0l0,0.1c-4,0.5-7.2,3.9-7.2,8v24.4c0,4.5,3.6,8.1,8.1,8.1h32.5
				c4.5,0,8.1-3.6,8.1-8.1v-24.4C326.9,111.2,323.7,107.8,319.6,107.3z M318.7,113.3h4.1v2h-4.1V113.3z M312.6,113.3h4.1v2h-4.1
				V113.3z M306.6,113.3h4.1v2h-4.1V113.3z M286.2,141.8h-4.1v-2h4.1V141.8z M286.2,115.4h-4.1v-2h4.1V115.4z M292.3,141.8h-4.1v-2
				h4.1V141.8z M292.3,115.4h-4.1v-2h4.1V115.4z M298.4,141.8h-4.1v-2h4.1V141.8z M298.4,115.4h-4.1v-2h4.1V115.4z M304.5,141.8
				h-4.1v-2h4.1V141.8z M304.5,115.4h-4.1v-2h4.1V115.4z M310.6,141.8h-4.1v-2h4.1V141.8z M316.7,141.8h-4.1v-2h4.1V141.8z
				 M322.8,141.8h-4.1v-2h4.1V141.8z M324.8,121.5h-6.1c-3.9,0-7.1,3.2-7.1,7.1c0,3.9,3.2,7.1,7.1,7.1h6.1v2h-6.1
				c-5,0-9.1-4.1-9.1-9.1c0-5,4.1-9.1,9.1-9.1h6.1V121.5z M320.7,128.6c0,1.7-1.4,3-3,3c-1.7,0-3-1.4-3-3c0-1.7,1.4-3,3-3
				C319.4,125.5,320.7,126.9,320.7,128.6z"/>
		</g>
	</g>
</g>
</svg>
